<svg width="322" height="67" viewBox="0 0 322 67" fill="none" xmlns="http://www.w3.org/2000/svg">
<path d="M304.372 36.8897V66.1197H294.423V0.616371H310.535C317.138 0.616371 320.483 3.43372 320.483 10.7412V22.3628C320.483 27.8214 317.93 29.9344 316.169 30.7267C318.37 31.6952 320.483 33.4561 320.483 37.8582V60.8371C320.483 63.4784 321.012 64.711 321.452 65.6794V66.1197H311.591C311.151 65.4153 310.623 64.2708 310.623 60.7491V41.0277C310.623 38.1223 310.094 36.8897 306.925 36.8897H304.372ZM304.372 9.50862V27.5572H307.013C309.742 27.5572 310.623 25.7964 310.623 22.891V13.7346C310.623 10.9173 310.006 9.50862 307.013 9.50862H304.372Z" fill="white"/>
<path d="M266.954 0.616371H289.581V10.1249H276.903V27.2931H286.852V37.2419H276.903V56.1709H290.11V66.1197H266.954V0.616371Z" fill="white"/>
<path d="M245.392 67.0001H244.775C238.965 67.0001 235.267 61.8056 235.267 55.0264V14.0868C235.267 6.77932 238.084 8.39233e-05 247.505 8.39233e-05H249.442C260.095 8.39233e-05 261.327 6.9554 261.327 14.7031V21.3943H251.643V13.9988C251.643 11.0934 250.938 9.50863 248.473 9.50863C246.36 9.50863 245.392 11.0934 245.392 13.9988V52.2971C245.392 55.3785 246.624 56.9633 248.649 56.9633C251.202 56.9633 252.347 55.2024 252.347 52.7373V36.3614H247.857V26.3247H261.768V66.1197H256.133C256.045 65.7675 255.252 62.5099 254.46 59.6926C253.756 61.8936 250.41 67.0001 245.392 67.0001Z" fill="white"/>
<path d="M222.811 66.1197L221.49 53.7938H214.271L212.95 66.1197H204.058L212.07 0.616371H223.868L232.408 66.1197H222.811ZM215.239 44.0211H220.434L217.793 19.8095L215.239 44.0211Z" fill="white"/>
<path d="M174.146 0.616371H183.126L191.666 35.7451V0.616371H200.734V66.1197H192.635L183.126 28.4377V66.1197H174.146V0.616371Z" fill="white"/>
<path d="M161.168 66.1197L159.847 53.7938H152.628L151.307 66.1197H142.415L150.427 0.616371H162.224L170.764 66.1197H161.168ZM153.596 44.0211H158.791L156.149 19.8095L153.596 44.0211Z" fill="white"/>
<path d="M104.851 66.1197V0.616371H117.617L122.371 35.2169L127.213 0.616371H139.099V66.1197H129.766V23.7714L123.78 66.1197H119.818L113.743 23.7714V66.1197H104.851Z" fill="white"/>
<path d="M89.5608 51.5047C89.5608 61.1013 85.4228 66.824 76.7066 66.824H74.7697C66.8459 66.824 62.6199 62.5099 62.6199 54.4101V41.2918H72.4806V52.7373C72.4806 55.7307 73.4491 57.3155 75.7382 57.3155C78.1153 57.3155 78.9957 55.7307 78.9957 51.6808V50.1841C78.9957 45.5178 78.5555 43.845 74.9458 39.1788L68.6068 31.0789C64.3808 25.6203 63.1482 21.3943 63.1482 14.8792V12.7662C63.1482 4.05002 67.5503 8.39233e-05 75.386 8.39233e-05H77.2349C85.4228 8.39233e-05 88.5923 3.60981 88.5923 11.3575V22.0986H78.9957V12.6781C78.9957 10.4771 78.5555 8.80429 76.1784 8.80429C73.8013 8.80429 73.273 10.301 73.273 13.3825V14.6151C73.273 18.3128 73.9773 20.3378 77.3229 24.6519L83.662 32.8398C88.1521 38.6505 89.5608 41.9961 89.5608 49.3917V51.5047Z" fill="white"/>
<path d="M31.7309 66.1197V0.616371H46.9622C55.5023 0.616371 58.1435 5.45868 58.1435 13.2064V53.0894C58.1435 61.1013 55.1501 66.1197 46.9622 66.1197H31.7309ZM41.6797 9.50862V56.6111H44.0568C47.0502 56.6111 47.9307 55.0264 47.9307 51.5047V14.6151C47.9307 10.8292 46.9622 9.50862 44.497 9.50862H41.6797Z" fill="white"/>
<path d="M18.753 66.1197L17.4323 53.7938H10.2129L8.89225 66.1197H0L8.01183 0.616371H19.8095L28.3495 66.1197H18.753ZM11.1813 44.0211H16.3758L13.7346 19.8095L11.1813 44.0211Z" fill="white"/>
</svg>
