<svg width="407" height="292" viewBox="0 0 407 292" fill="none" xmlns="http://www.w3.org/2000/svg">
<path d="M188.988 43.8884V247.633C188.988 251.493 190.515 255.194 193.234 257.924C195.953 260.653 199.641 262.186 203.486 262.186H246.979V233.08H217.984V58.4416H246.979V29.3352H203.486C199.641 29.3352 195.953 30.8685 193.234 33.5978C190.515 36.327 188.988 40.0287 188.988 43.8884ZM395.467 29.7718L279.484 0.665486C277.347 0.130522 275.117 0.0912119 272.963 0.55054C270.809 1.00987 268.787 1.95576 267.051 3.31643C265.316 4.6771 263.912 6.41678 262.946 8.40342C261.98 10.3901 261.478 12.5715 261.477 14.7821V276.739C261.472 278.952 261.971 281.136 262.935 283.126C263.899 285.115 265.303 286.857 267.04 288.219C268.777 289.581 270.801 290.527 272.958 290.983C275.114 291.44 277.346 291.397 279.484 290.856L395.467 261.749C398.604 260.964 401.39 259.148 403.382 256.59C405.373 254.032 406.455 250.879 406.456 247.633V43.8884C406.455 40.6422 405.373 37.4894 403.382 34.9315C401.39 32.3736 398.604 30.5574 395.467 29.7718ZM333.967 148.497C333.8 152.244 332.199 155.782 329.499 158.374C326.798 160.967 323.205 162.413 319.469 162.413C315.732 162.413 312.139 160.967 309.439 158.374C306.738 155.782 305.138 152.244 304.971 148.497V143.01C304.973 139.15 306.502 135.449 309.222 132.722C311.943 129.994 315.631 128.462 319.476 128.464C323.321 128.466 327.008 130.001 329.725 132.732C332.443 135.462 333.969 139.165 333.967 143.025V148.497Z" fill="white"/>
<path d="M139.285 249.259C146.488 242.548 141.593 225.321 154.219 223.946C166.163 222.654 167.567 238.436 165.69 246.827C165.384 248.217 164.536 251.315 162.436 249.912C161.31 249.161 162.27 244.716 162.297 243.688C162.395 239.867 162.603 231.184 157.681 230.114C152.244 228.836 151.021 235.783 150.464 239.409C149.723 245.141 147.451 250.568 143.887 255.121C142.334 257.076 140.315 258.612 138.016 259.589C135.717 260.566 133.211 260.953 130.724 260.716C128.237 260.478 125.849 259.624 123.776 258.229C121.704 256.835 120.014 254.945 118.858 252.732C113.297 242.84 119.804 229.725 126.59 222.168C129.927 218.444 134.307 215.874 137.714 212.234C141.555 208.265 144.852 203.803 147.516 198.966C153.078 188.713 155.943 174.431 149.547 163.873C137.38 143.756 104.634 154.592 91.3268 167.527C88.6432 170.139 85.0557 173.667 85.3894 177.766C85.9595 184.809 93.2179 182.031 97.1251 179.905C107.178 174.473 117.051 164.915 129.19 165.095C139.785 165.248 147.516 174.098 144.735 184.657C142.288 193.937 133.292 200.759 125.755 205.968C116.154 212.449 106.108 218.247 95.6929 223.321C89.394 226.46 75.6838 229.892 73.3478 237.644C71.6792 243.201 75.7672 247.203 81.1484 245.744C86.9607 244.16 91.0765 238.978 97.0139 237.866C98.9745 237.505 109.097 238.714 104.175 241.715C103.063 242.396 100.838 241.479 99.6141 241.52C98.0887 241.605 96.5931 241.978 95.2063 242.618C92.2445 243.84 89.7277 245.897 86.9746 247.453C82.525 249.967 76.2539 252.482 71.2898 249.995C66.6317 247.661 64.685 241.09 66.3119 236.324C69.7881 226.141 84.8054 220.903 93.3847 216.235C104.133 210.386 115.021 204.232 124.546 196.493C128.272 193.465 132.457 189.908 134.488 185.379C136.518 180.85 135.086 175.307 129.301 175.654C118.692 176.335 110.293 187.894 101.755 193.076C91.0209 199.592 78.3257 200.939 69.7742 190.144C62.196 180.53 65.8808 168.985 72.0963 159.844C72.4579 159.302 75.0163 156.482 74.2099 155.676C73.4034 154.87 69.2597 158.218 68.8843 158.455C64.2669 161.556 60.6606 165.942 58.5112 171.069C51.3641 190.436 82.4277 217.319 58.5112 232.268C49.8207 237.714 36.7501 237.922 31.063 228.253C24.6945 217.43 31.7999 206.107 33.844 195.187C34.7339 190.45 32.0363 183.768 26.1267 186.171C24.7363 186.727 22.6366 189.519 21.121 188.616C18.7711 187.227 22.3446 184.448 23.4709 183.642C27.4338 180.864 32.3422 180.725 35.4291 184.935C39.0027 189.797 38.0711 197.285 37.4036 202.87C36.2634 212.47 31.5914 228.141 46.567 228.391C59.2343 228.6 59.9017 216.082 56.0779 207.219C51.67 197.007 44.0224 188.185 42.7848 176.793C41.5473 165.401 47.735 156.287 55.7998 148.744C56.6897 147.91 60.6943 145.062 59.1648 143.992C57.6352 142.922 53.9087 145.09 52.7824 145.673C47.3873 148.452 43.049 153.55 38.0015 157.01C29.4639 162.859 15.4478 169.333 6.72943 160.094C-0.959981 151.939 2.405 138.407 12.8059 135.017C17.6726 133.434 22.8869 132.906 27.9205 132.03C31.2438 131.461 40.9911 130.238 41.436 125.501C41.881 120.763 35.5404 122.055 33.4963 120.291C31.7443 118.777 32.5369 117.373 34.2333 116.818C36.8196 115.956 40.1012 117.693 41.6446 118.818C53.283 127.321 37.6678 134.601 30.7293 136.587C26.0016 137.977 2.32157 140.825 11.2624 151.105C19.0213 160.038 32.6621 148.785 38.2101 142.672C41.1579 139.435 43.7721 135.976 47.5125 133.503C53.4221 129.53 62.8079 129.238 62.6827 128.071C62.488 126.07 57.4406 126.39 54.3398 124.014C51.6474 122.068 49.2979 119.687 47.3873 116.97C42.7292 110.482 42.4789 102.536 45.5797 95.2975C50.5855 83.6136 61.028 74.9444 71.5819 68.4564C74.1821 66.8587 86.0012 61.7739 80.1194 57.4949C75.2666 53.98 64.9631 59.565 59.9295 60.9265C56.8288 61.7739 53.3664 62.8576 50.1961 61.4266C49.0003 60.857 42.9239 55.5221 45.6631 54.0356C47.0536 53.2576 50.6272 56.9948 51.8925 57.4116C55.3965 58.5925 59.6236 56.3279 62.9052 55.2443C69.7603 52.9797 79.1739 48.8674 85.8344 53.7439C91.7161 58.0645 88.7683 64.3163 84.3604 68.3314C79.313 72.9299 72.9167 75.8891 67.758 80.4182C62.8047 84.4713 58.541 89.299 55.1324 94.714C51.239 101.383 53.4638 108.815 60.1381 112.775C62.8396 114.225 65.7694 115.202 68.8009 115.665C73.2087 116.512 74.6131 117.179 74.627 112.636C74.627 104.786 75.3779 96.7007 78.6316 89.4347C81.8854 82.1687 88.671 76.6532 95.5122 72.5548C122.432 56.4113 167.943 64.4831 171.141 100.98C171.336 103.147 170.404 110.218 172.323 110.955C174.784 111.886 182.334 108.176 184.517 107.12C190.26 104.495 197.769 98.9097 194.154 91.6993C190.649 84.7528 179.818 85.2113 173.505 82.7383C167.192 80.2654 162.854 73.1661 167.025 66.7476C167.871 65.5982 168.96 64.6489 170.214 63.9671C171.469 63.2852 172.858 62.8874 174.283 62.802C176.619 62.4825 184.476 62.0518 185.964 64.3719C188.355 68.123 181.542 66.6504 179.984 66.5253C177.203 66.3169 172.017 65.7612 170.334 68.5537C165.412 76.7227 181.875 78.1815 185.532 78.7789C192.207 79.8625 201.537 81.9325 205.264 88.2955C209.435 95.4087 206.571 104.55 201.551 110.316C195.989 116.637 189.189 119.485 182.084 123.361C178.441 125.348 181.055 125.112 184.017 126.14C187.797 127.666 191.254 129.891 194.209 132.697C200.16 137.935 204.193 145.298 210.547 150.036C215.275 153.55 226.218 155.204 224.299 145.77C222.7 137.935 212.981 137.671 209.004 131.878C203.901 124.514 211.312 119.652 217.347 116.887C219.335 115.956 225.467 111.511 227.539 112.719C230.042 114.206 223.535 116.623 222.394 117.165C219.321 118.624 215.887 120.096 213.453 122.528C209.838 126.154 212.647 129.293 216.054 131.669C221.379 135.406 230.612 137.824 233.282 144.339C233.956 146.089 234.215 147.971 234.039 149.837C233.863 151.704 233.257 153.504 232.269 155.097C231.28 156.691 229.936 158.034 228.341 159.021C226.746 160.008 224.944 160.613 223.076 160.789C215.317 161.442 207.544 157.691 201.37 153.328C199.34 151.939 186.617 140.297 183.808 142.77C183.808 144.478 188.077 147.493 189.162 148.855C191.315 151.552 193.002 154.59 194.154 157.843C196.545 164.79 195.419 171.458 192.902 178.21C189.551 187.185 174.005 209.15 187.229 216.388C192.374 219.167 197.226 215.763 198.158 210.442C199.382 203.495 194.432 196.216 197.032 189.186C197.699 187.366 200.188 184.115 202.33 183.948C206.126 183.656 202.775 186.574 201.579 188.297C196.698 195.243 202.969 200.606 205.124 207.399C206.96 213.207 206.682 219.903 201.203 223.612C196.031 227.086 187.298 227.53 181.597 225.557C166.302 220.278 173.908 200.092 177.774 189.728C179.998 183.781 182.487 176.696 181.319 170.278C180.716 167.175 179.234 164.311 177.05 162.025C175.535 160.316 170.932 154.898 168.124 156.065C166.83 156.607 171.294 170.736 171.516 173.348C172.049 180.743 170.416 188.134 166.816 194.618C159.864 207.83 149.046 217.18 137.616 226.405C132.221 230.767 126.868 236.936 127.146 244.382C127.257 247.355 128.328 249.939 131.192 251.12C133.361 252.023 138.117 251.871 139.285 249.259Z" fill="#FF5500"/>
</svg>
