<svg width="307" height="280" viewBox="0 0 307 280" fill="none" xmlns="http://www.w3.org/2000/svg">
<rect x="20.5" y="7.23315" width="264" height="164" rx="16" fill="white"/>
<rect x="26.511" y="13.3896" width="251.444" height="151.733" rx="12" fill="#FF5500"/>
<rect x="35.5" y="22.2332" width="127" height="134" rx="12" fill="white"/>
<path d="M103.223 108.199C104.842 106.809 103.742 103.241 106.578 102.956C109.262 102.689 109.577 105.957 109.156 107.695C109.087 107.983 108.896 108.624 108.425 108.334C108.172 108.178 108.387 107.258 108.393 107.045C108.415 106.254 108.462 104.455 107.356 104.234C106.135 103.969 105.86 105.408 105.735 106.159C105.568 107.346 105.058 108.47 104.257 109.413C103.908 109.818 103.455 110.136 102.938 110.338C102.422 110.54 101.859 110.621 101.3 110.571C100.741 110.522 100.205 110.345 99.7392 110.057C99.2737 109.768 98.8939 109.376 98.6344 108.918C97.3848 106.869 98.8468 104.153 100.371 102.588C101.121 101.817 102.105 101.284 102.87 100.531C103.733 99.7085 104.474 98.7845 105.073 97.7827C106.322 95.6592 106.966 92.7013 105.529 90.5145C102.795 86.3481 95.4387 88.5925 92.4491 91.2713C91.8462 91.8122 91.0402 92.543 91.1152 93.3919C91.2433 94.8507 92.8739 94.2752 93.7518 93.835C96.0103 92.7099 98.2283 90.7303 100.955 90.7677C103.336 90.7994 105.073 92.6322 104.448 94.819C103.898 96.7411 101.877 98.1539 100.184 99.2329C98.0267 100.575 95.7699 101.776 93.43 102.827C92.0149 103.477 88.9347 104.188 88.4099 105.793C88.035 106.944 88.9535 107.773 90.1624 107.471C91.4682 107.143 92.3929 106.069 93.7268 105.839C94.1672 105.764 96.4414 106.015 95.3356 106.636C95.0857 106.777 94.5858 106.587 94.3109 106.596C93.9682 106.614 93.6322 106.691 93.3207 106.823C92.6553 107.076 92.0898 107.502 91.4713 107.825C90.4717 108.345 89.0628 108.866 87.9476 108.351C86.9011 107.868 86.4637 106.507 86.8292 105.52C87.6102 103.411 90.984 102.326 92.9114 101.359C95.3262 100.148 97.7722 98.8732 99.9121 97.2705C100.749 96.6432 101.69 95.9067 102.146 94.9686C102.602 94.0306 102.28 92.8826 100.98 92.9545C98.5969 93.0955 96.7101 95.4894 94.792 96.5627C92.3804 97.9122 89.5283 98.1913 87.6071 95.9556C85.9046 93.9645 86.7324 91.5734 88.1288 89.6801C88.21 89.5679 88.7848 88.9838 88.6036 88.8169C88.4224 88.65 87.4915 89.3435 87.4071 89.3924C86.3698 90.0347 85.5596 90.943 85.0767 92.005C83.4711 96.016 90.4498 101.584 85.0767 104.68C83.1243 105.808 80.1879 105.851 78.9102 103.848C77.4794 101.607 79.0757 99.2616 79.535 97C79.7349 96.0189 79.1289 94.6349 77.8012 95.1327C77.4888 95.2477 77.0171 95.8261 76.6766 95.6391C76.1487 95.3513 76.9515 94.7759 77.2045 94.609C78.0949 94.0335 79.1976 94.0047 79.8911 94.8766C80.6939 95.8836 80.4846 97.4345 80.3347 98.5912C80.0785 100.579 79.0289 103.825 82.3933 103.877C85.2392 103.92 85.3891 101.328 84.53 99.4918C83.5398 97.377 81.8216 95.5499 81.5436 93.1905C81.2656 90.831 82.6557 88.9435 84.4676 87.3811C84.6675 87.2085 85.5672 86.6186 85.2236 86.3971C84.8799 86.1755 84.0427 86.6244 83.7897 86.7452C82.5776 87.3207 81.603 88.3767 80.469 89.0931C78.5509 90.3045 75.4021 91.6453 73.4434 89.7319C71.7159 88.0429 72.4719 85.2404 74.8085 84.5383C75.9019 84.2103 77.0733 84.101 78.2042 83.9197C78.9508 83.8017 81.1406 83.5485 81.2406 82.5673C81.3406 81.5862 79.9161 81.8538 79.4569 81.4883C79.0633 81.1747 79.2413 80.8841 79.6224 80.769C80.2035 80.5906 80.9407 80.9503 81.2875 81.1833C83.9022 82.9443 80.394 84.452 78.8352 84.8634C77.7731 85.1512 72.4531 85.741 74.4618 87.8703C76.2049 89.7204 79.2694 87.3897 80.5159 86.1237C81.1781 85.4533 81.7654 84.7368 82.6057 84.2247C83.9334 83.4018 86.042 83.3413 86.0139 83.0996C85.9702 82.6853 84.8362 82.7515 84.1396 82.2595C83.5347 81.8563 83.0068 81.3633 82.5776 80.8007C81.5311 79.4569 81.4749 77.8111 82.1715 76.312C83.2961 73.8922 85.6422 72.0967 88.0132 70.753C88.5973 70.4221 91.2526 69.369 89.9312 68.4828C88.841 67.7548 86.5262 68.9115 85.3954 69.1935C84.6987 69.369 83.9209 69.5934 83.2086 69.2971C82.94 69.1791 81.5749 68.0742 82.1903 67.7663C82.5027 67.6052 83.3055 68.3792 83.5898 68.4655C84.377 68.7101 85.3266 68.2411 86.0639 68.0167C87.604 67.5476 89.7188 66.696 91.2152 67.7059C92.5366 68.6008 91.8743 69.8956 90.884 70.7271C89.7501 71.6795 88.3131 72.2924 87.1541 73.2304C86.0413 74.0698 85.0834 75.0697 84.3176 76.1912C83.4429 77.5723 83.9428 79.1117 85.4422 79.9317C86.0491 80.232 86.7074 80.4344 87.3884 80.5302C88.3787 80.7057 88.6942 80.8438 88.6973 79.9029C88.6973 78.2772 88.866 76.6026 89.597 75.0978C90.328 73.5929 91.8524 72.4506 93.3894 71.6018C99.4372 68.2583 109.662 69.9301 110.38 77.4888C110.424 77.9377 110.215 79.4023 110.646 79.5548C111.199 79.7475 112.895 78.9793 113.385 78.7606C114.676 78.2168 116.362 77.0601 115.55 75.5668C114.763 74.1281 112.329 74.2231 110.911 73.7109C109.493 73.1987 108.518 71.7284 109.456 70.3991C109.646 70.161 109.89 69.9644 110.172 69.8232C110.454 69.682 110.766 69.5996 111.086 69.5819C111.611 69.5157 113.376 69.4265 113.71 69.9071C114.248 70.6839 112.717 70.3789 112.367 70.353C111.742 70.3099 110.577 70.1948 110.199 70.7731C109.093 72.465 112.792 72.7671 113.613 72.8909C115.113 73.1153 117.209 73.544 118.046 74.8618C118.983 76.335 118.34 78.2283 117.212 79.4224C115.963 80.7316 114.435 81.3214 112.839 82.1242C112.02 82.5357 112.608 82.4868 113.273 82.6997C114.122 83.0158 114.899 83.4765 115.563 84.0578C116.9 85.1425 117.806 86.6675 119.233 87.6487C120.295 88.3767 122.754 88.7191 122.323 86.7654C121.964 85.1425 119.78 85.0879 118.887 83.888C117.74 82.363 119.405 81.356 120.761 80.7834C121.208 80.5906 122.585 79.6699 123.051 79.9202C123.613 80.2281 122.151 80.7287 121.895 80.8409C121.204 81.143 120.433 81.4481 119.886 81.9516C119.074 82.7026 119.705 83.3528 120.47 83.8449C121.667 84.6189 123.741 85.1195 124.341 86.469C124.492 86.8314 124.55 87.2211 124.511 87.6076C124.471 87.9942 124.335 88.367 124.113 88.697C123.891 89.027 123.589 89.3052 123.231 89.5097C122.872 89.7142 122.468 89.8395 122.048 89.8758C120.305 90.011 118.559 89.2341 117.172 88.3306C116.715 88.0429 113.857 85.6317 113.226 86.1439C113.226 86.4978 114.185 87.1222 114.429 87.4041C114.912 87.9629 115.292 88.592 115.55 89.2658C116.088 90.7044 115.834 92.0856 115.269 93.4839C114.516 95.3427 111.024 99.8918 113.995 101.391C115.15 101.966 116.241 101.261 116.45 100.159C116.725 98.7207 115.613 97.213 116.197 95.757C116.347 95.3801 116.906 94.7068 117.387 94.6723C118.24 94.6119 117.487 95.2161 117.218 95.5729C116.122 97.0116 117.531 98.1222 118.015 99.5292C118.427 100.732 118.365 102.119 117.134 102.887C115.972 103.606 114.01 103.698 112.729 103.29C109.293 102.196 111.002 98.0157 111.87 95.8692C112.37 94.6378 112.929 93.1703 112.667 91.841C112.531 91.1985 112.198 90.6053 111.708 90.1318C111.367 89.7779 110.333 88.6558 109.702 88.8975C109.412 89.0097 110.415 91.9359 110.465 92.4769C110.584 94.0085 110.217 95.5391 109.409 96.8821C107.847 99.6184 105.416 101.555 102.849 103.465C101.636 104.369 100.434 105.646 100.496 107.189C100.521 107.804 100.762 108.34 101.405 108.584C101.893 108.771 102.961 108.74 103.223 108.199Z" fill="#FF5500"/>
<rect x="9.50006" y="180.233" width="286" height="21" rx="10.5" fill="white"/>
<mask id="path-6-outside-1_2563_426" maskUnits="userSpaceOnUse" x="171.91" y="54.7415" width="135" height="226" fill="black">
<rect fill="white" x="171.91" y="54.7415" width="135" height="226"/>
<path d="M276.362 56.7415C292.179 56.7415 304.299 70.087 304.299 85.6545V248.926C304.299 264.493 292.167 277.838 276.362 277.838H201.847C186.03 277.838 173.91 264.493 173.91 248.926V85.6545C173.91 70.087 186.042 56.7415 201.847 56.7415H276.362Z"/>
</mask>
<path d="M276.362 56.7415C292.179 56.7415 304.299 70.087 304.299 85.6545V248.926C304.299 264.493 292.167 277.838 276.362 277.838H201.847C186.03 277.838 173.91 264.493 173.91 248.926V85.6545C173.91 70.087 186.042 56.7415 201.847 56.7415H276.362Z" fill="white"/>
<path d="M304.299 248.926L306.299 248.926V248.926H304.299ZM173.91 248.926H171.91V248.926L173.91 248.926ZM276.362 56.7415V58.7415C290.975 58.7415 302.299 71.0895 302.299 85.6545H304.299H306.299C306.299 69.0846 293.383 54.7415 276.362 54.7415V56.7415ZM304.299 85.6545H302.299V248.926H304.299H306.299V85.6545H304.299ZM304.299 248.926L302.299 248.926C302.299 263.49 290.964 275.838 276.362 275.838V277.838V279.838C293.371 279.838 306.299 265.496 306.299 248.926L304.299 248.926ZM276.362 277.838V275.838H201.847V277.838V279.838H276.362V277.838ZM201.847 277.838V275.838C187.234 275.838 175.91 263.491 175.91 248.926L173.91 248.926L171.91 248.926C171.91 265.496 184.826 279.838 201.847 279.838V277.838ZM173.91 248.926H175.91V85.6545H173.91H171.91V248.926H173.91ZM173.91 85.6545H175.91C175.91 71.09 187.245 58.7415 201.847 58.7415V56.7415V54.7415C184.838 54.7415 171.91 69.0841 171.91 85.6545H173.91ZM201.847 56.7415V58.7415H276.362V56.7415V54.7415H201.847V56.7415Z" fill="white" mask="url(#path-6-outside-1_2563_426)"/>
<path d="M273.624 61.0772C288.348 61.0773 299.632 73.8995 299.632 88.8565V245.726C299.632 260.682 288.338 273.504 273.624 273.504H204.254C189.529 273.504 178.246 260.682 178.246 245.726V88.8565C178.246 73.8995 189.539 61.0773 204.254 61.0772H273.624Z" fill="#FF5500"/>
<rect x="201.5" y="106.233" width="75" height="122" rx="12" fill="white"/>
<path d="M243.651 188.747C245.269 187.357 244.169 183.789 247.006 183.505C249.689 183.237 250.005 186.506 249.583 188.244C249.514 188.531 249.324 189.173 248.852 188.882C248.599 188.727 248.815 187.806 248.821 187.593C248.843 186.802 248.89 185.004 247.784 184.782C246.562 184.517 246.287 185.956 246.162 186.707C245.996 187.894 245.485 189.018 244.685 189.961C244.336 190.366 243.882 190.684 243.366 190.887C242.849 191.089 242.286 191.169 241.727 191.12C241.169 191.071 240.632 190.894 240.167 190.605C239.701 190.316 239.321 189.925 239.062 189.466C237.812 187.418 239.274 184.702 240.799 183.136C241.548 182.365 242.532 181.833 243.298 181.079C244.161 180.257 244.901 179.333 245.5 178.331C246.75 176.208 247.393 173.25 245.956 171.063C243.223 166.897 235.866 169.141 232.877 171.82C232.274 172.361 231.468 173.092 231.543 173.94C231.671 175.399 233.301 174.824 234.179 174.383C236.438 173.258 238.656 171.279 241.383 171.316C243.763 171.348 245.5 173.181 244.875 175.367C244.326 177.29 242.304 178.702 240.611 179.781C238.454 181.123 236.197 182.324 233.857 183.375C232.442 184.025 229.362 184.736 228.837 186.342C228.462 187.493 229.381 188.321 230.59 188.019C231.896 187.691 232.82 186.618 234.154 186.388C234.595 186.313 236.869 186.563 235.763 187.185C235.513 187.326 235.013 187.136 234.738 187.144C234.396 187.162 234.06 187.239 233.748 187.372C233.083 187.625 232.517 188.051 231.899 188.373C230.899 188.894 229.49 189.415 228.375 188.9C227.328 188.416 226.891 187.055 227.257 186.068C228.038 183.959 231.411 182.874 233.339 181.908C235.754 180.696 238.2 179.422 240.339 177.819C241.177 177.192 242.117 176.455 242.573 175.517C243.029 174.579 242.707 173.431 241.408 173.503C239.024 173.644 237.137 176.038 235.219 177.111C232.808 178.461 229.956 178.74 228.034 176.504C226.332 174.513 227.16 172.122 228.556 170.229C228.637 170.116 229.212 169.532 229.031 169.365C228.85 169.198 227.919 169.892 227.835 169.941C226.797 170.583 225.987 171.492 225.504 172.553C223.898 176.564 230.877 182.132 225.504 185.228C223.552 186.356 220.615 186.399 219.338 184.397C217.907 182.155 219.503 179.81 219.962 177.549C220.162 176.567 219.556 175.183 218.229 175.681C217.916 175.796 217.445 176.375 217.104 176.188C216.576 175.9 217.379 175.324 217.632 175.157C218.522 174.582 219.625 174.553 220.318 175.425C221.121 176.432 220.912 177.983 220.762 179.14C220.506 181.128 219.456 184.374 222.821 184.425C225.667 184.468 225.817 181.876 224.957 180.04C223.967 177.925 222.249 176.098 221.971 173.739C221.693 171.379 223.083 169.492 224.895 167.93C225.095 167.757 225.995 167.167 225.651 166.946C225.307 166.724 224.47 167.173 224.217 167.294C223.005 167.869 222.03 168.925 220.896 169.642C218.978 170.853 215.829 172.194 213.871 170.28C212.143 168.591 212.899 165.789 215.236 165.087C216.329 164.759 217.501 164.649 218.632 164.468C219.378 164.35 221.568 164.097 221.668 163.116C221.768 162.135 220.343 162.402 219.884 162.037C219.491 161.723 219.669 161.433 220.05 161.317C220.631 161.139 221.368 161.499 221.715 161.732C224.33 163.493 220.821 165 219.263 165.412C218.201 165.7 212.881 166.289 214.889 168.419C216.632 170.269 219.697 167.938 220.943 166.672C221.606 166.002 222.193 165.285 223.033 164.773C224.361 163.95 226.469 163.89 226.441 163.648C226.398 163.234 225.264 163.3 224.567 162.808C223.962 162.405 223.434 161.912 223.005 161.349C221.959 160.005 221.902 158.36 222.599 156.86C223.724 154.441 226.07 152.645 228.441 151.301C229.025 150.971 231.68 149.917 230.359 149.031C229.268 148.303 226.954 149.46 225.823 149.742C225.126 149.917 224.348 150.142 223.636 149.846C223.367 149.728 222.002 148.623 222.618 148.315C222.93 148.154 223.733 148.928 224.017 149.014C224.804 149.259 225.754 148.79 226.491 148.565C228.031 148.096 230.146 147.244 231.643 148.254C232.964 149.149 232.302 150.444 231.311 151.276C230.177 152.228 228.74 152.841 227.582 153.779C226.469 154.618 225.511 155.618 224.745 156.74C223.87 158.121 224.37 159.66 225.87 160.48C226.477 160.78 227.135 160.983 227.816 161.079C228.806 161.254 229.122 161.392 229.125 160.451C229.125 158.826 229.293 157.151 230.024 155.646C230.755 154.141 232.28 152.999 233.817 152.15C239.865 148.807 250.089 150.479 250.808 158.037C250.851 158.486 250.642 159.951 251.073 160.103C251.626 160.296 253.322 159.528 253.813 159.309C255.103 158.765 256.79 157.609 255.978 156.115C255.19 154.677 252.757 154.772 251.339 154.259C249.92 153.747 248.946 152.277 249.883 150.948C250.073 150.71 250.318 150.513 250.599 150.372C250.881 150.23 251.193 150.148 251.514 150.13C252.038 150.064 253.803 149.975 254.138 150.456C254.675 151.232 253.144 150.927 252.794 150.902C252.17 150.858 251.004 150.743 250.626 151.322C249.521 153.013 253.219 153.316 254.041 153.439C255.54 153.664 257.636 154.092 258.474 155.41C259.411 156.883 258.767 158.777 257.64 159.971C256.39 161.28 254.862 161.87 253.266 162.673C252.448 163.084 253.035 163.035 253.7 163.248C254.549 163.564 255.326 164.025 255.99 164.606C257.327 165.691 258.233 167.216 259.661 168.197C260.723 168.925 263.181 169.268 262.75 167.314C262.391 165.691 260.207 165.636 259.314 164.436C258.167 162.911 259.833 161.904 261.188 161.332C261.635 161.139 263.013 160.218 263.478 160.469C264.04 160.777 262.578 161.277 262.322 161.389C261.632 161.692 260.86 161.997 260.314 162.5C259.501 163.251 260.132 163.901 260.898 164.393C262.094 165.167 264.168 165.668 264.768 167.017C264.92 167.38 264.978 167.77 264.938 168.156C264.899 168.543 264.763 168.915 264.541 169.245C264.318 169.575 264.016 169.854 263.658 170.058C263.3 170.263 262.895 170.388 262.475 170.424C260.732 170.559 258.986 169.783 257.599 168.879C257.143 168.591 254.284 166.18 253.653 166.692C253.653 167.046 254.612 167.671 254.856 167.953C255.34 168.511 255.719 169.141 255.978 169.814C256.515 171.253 256.262 172.634 255.696 174.032C254.944 175.891 251.451 180.44 254.422 181.939C255.578 182.515 256.668 181.81 256.877 180.708C257.152 179.269 256.04 177.761 256.624 176.305C256.774 175.929 257.333 175.255 257.814 175.221C258.667 175.16 257.914 175.765 257.646 176.121C256.549 177.56 257.958 178.671 258.442 180.078C258.855 181.28 258.792 182.667 257.561 183.436C256.399 184.155 254.438 184.247 253.157 183.838C249.72 182.745 251.429 178.564 252.298 176.418C252.798 175.186 253.357 173.719 253.094 172.389C252.959 171.747 252.626 171.154 252.135 170.68C251.795 170.326 250.761 169.204 250.13 169.446C249.839 169.558 250.842 172.484 250.892 173.025C251.012 174.557 250.645 176.088 249.836 177.431C248.274 180.167 245.844 182.103 243.276 184.014C242.064 184.917 240.861 186.195 240.924 187.737C240.949 188.353 241.189 188.888 241.833 189.133C242.32 189.32 243.388 189.288 243.651 188.747Z" fill="#FF5500"/>
<circle cx="239.104" cy="263.666" r="5.66916" fill="white"/>
<rect x="216.431" y="65.2464" width="45.3532" height="11.3383" rx="5.66916" fill="white"/>
</svg>
