<svg width="368" height="300" viewBox="0 0 368 300" fill="none" xmlns="http://www.w3.org/2000/svg">
<rect x="1.42438" y="55.0954" width="186.723" height="254.14" rx="3.19296" transform="rotate(-16.7901 1.42438 55.0954)" fill="white" stroke="white" stroke-width="1.48338"/>
<rect x="42.3903" y="142.067" width="157.184" height="11.2453" rx="5.62267" transform="rotate(-16.79 42.3903 142.067)" fill="white"/>
<rect x="48.4274" y="162.061" width="157.184" height="11.2453" rx="5.62267" transform="rotate(-16.79 48.4274 162.061)" fill="black"/>
<rect x="54.4561" y="182.057" width="157.184" height="11.2453" rx="5.62267" transform="rotate(-16.79 54.4561 182.057)" fill="black"/>
<rect x="42.4995" y="141.638" width="157.184" height="11.2453" rx="5.62267" transform="rotate(-16.79 42.4995 141.638)" fill="black"/>
<rect x="60.4916" y="202.05" width="97.5625" height="11.2453" rx="5.62267" transform="rotate(-16.79 60.4916 202.05)" fill="black"/>
<rect x="38.4997" y="123.415" width="91.8482" height="11.2453" rx="5.62267" transform="rotate(-16.79 38.4997 123.415)" fill="black"/>
<rect x="31.5004" y="103.271" width="86.6761" height="11.2453" rx="5.62267" transform="rotate(-16.79 31.5004 103.271)" fill="black"/>
<rect x="25.4995" y="83.2708" width="69.6797" height="11.2453" rx="5.62267" transform="rotate(-16.79 25.4995 83.2708)" fill="black"/>
<rect x="66.5291" y="222.043" width="97.5625" height="11.2453" rx="5.62267" transform="rotate(-16.79 66.5291 222.043)" fill="#FF5500"/>
<rect x="72.5568" y="242.037" width="97.5625" height="11.2453" rx="5.62267" transform="rotate(-16.79 72.5568 242.037)" fill="#FF5500"/>
<rect x="79.4997" y="261.415" width="97.5625" height="11.2453" rx="5.62267" transform="rotate(-16.79 79.4997 261.415)" fill="#FF5500"/>
<path d="M280.891 286.906C287.437 280.777 282.989 265.044 294.463 263.788C305.319 262.608 306.595 277.022 304.889 284.685C304.611 285.954 303.84 288.784 301.932 287.502C300.908 286.817 301.78 282.757 301.805 281.818C301.894 278.329 302.083 270.398 297.61 269.421C292.669 268.254 291.557 274.598 291.051 277.91C290.378 283.145 288.313 288.102 285.074 292.26C283.662 294.045 281.828 295.448 279.738 296.34C277.649 297.232 275.371 297.586 273.111 297.369C270.85 297.152 268.68 296.372 266.797 295.098C264.913 293.825 263.377 292.099 262.327 290.078C257.272 281.044 263.187 269.066 269.353 262.164C272.386 258.763 276.367 256.416 279.463 253.092C282.955 249.467 285.951 245.392 288.372 240.975C293.427 231.611 296.03 218.567 290.217 208.924C279.16 190.552 249.4 200.449 237.306 212.261C234.867 214.647 231.607 217.869 231.91 221.612C232.428 228.045 239.025 225.508 242.576 223.566C251.712 218.605 260.684 209.876 271.717 210.041C281.346 210.18 288.372 218.263 285.845 227.906C283.621 236.382 275.445 242.611 268.595 247.369C259.869 253.288 250.74 258.584 241.274 263.217C235.549 266.084 223.089 269.218 220.966 276.298C219.45 281.374 223.165 285.028 228.056 283.696C233.338 282.249 237.078 277.517 242.474 276.501C244.256 276.172 253.456 277.275 248.983 280.016C247.972 280.638 245.95 279.8 244.838 279.838C243.451 279.916 242.092 280.256 240.832 280.841C238.14 281.957 235.853 283.835 233.35 285.256C229.307 287.553 223.607 289.849 219.096 287.578C214.862 285.447 213.093 279.445 214.572 275.093C217.731 265.793 231.379 261.009 239.176 256.746C248.945 251.404 258.839 245.783 267.496 238.716C270.883 235.95 274.686 232.702 276.531 228.566C278.376 224.429 277.075 219.367 271.818 219.684C262.176 220.306 254.543 230.862 246.784 235.595C237.028 241.546 225.49 242.776 217.718 232.918C210.831 224.137 214.18 213.594 219.829 205.245C220.157 204.75 222.483 202.174 221.75 201.438C221.017 200.702 217.251 203.76 216.91 203.976C212.713 206.809 209.436 210.814 207.482 215.497C200.987 233.184 229.218 257.736 207.482 271.388C199.584 276.362 187.705 276.552 182.537 267.721C176.749 257.837 183.207 247.496 185.064 237.523C185.873 233.197 183.421 227.094 178.051 229.289C176.787 229.796 174.879 232.347 173.501 231.522C171.366 230.253 174.613 227.715 175.637 226.98C179.239 224.442 183.699 224.315 186.505 228.16C189.753 232.6 188.906 239.439 188.299 244.54C187.263 253.308 183.017 267.62 196.627 267.848C208.14 268.038 208.746 256.606 205.271 248.511C201.265 239.186 194.315 231.129 193.19 220.724C192.065 210.32 197.689 201.997 205.018 195.107C205.827 194.346 209.466 191.745 208.076 190.768C206.686 189.791 203.3 191.77 202.276 192.303C197.373 194.84 193.43 199.497 188.843 202.656C181.084 207.998 168.345 213.911 160.422 205.473C153.434 198.025 156.492 185.667 165.944 182.571C170.367 181.125 175.106 180.642 179.681 179.843C182.701 179.323 191.56 178.206 191.964 173.88C192.368 169.553 186.606 170.733 184.748 169.122C183.156 167.739 183.876 166.457 185.418 165.95C187.769 165.163 190.751 166.749 192.154 167.777C202.731 175.542 188.539 182.19 182.234 184.005C177.937 185.274 156.416 187.875 164.542 197.264C171.593 205.422 183.99 195.145 189.032 189.562C191.711 186.606 194.087 183.447 197.486 181.188C202.857 177.559 211.387 177.293 211.274 176.227C211.097 174.4 206.509 174.692 203.691 172.522C201.244 170.744 199.109 168.57 197.373 166.089C193.139 160.164 192.912 152.906 195.73 146.296C200.279 135.625 209.77 127.707 219.361 121.782C221.724 120.323 232.466 115.679 227.12 111.771C222.71 108.561 213.346 113.662 208.771 114.905C205.953 115.679 202.807 116.669 199.925 115.362C198.839 114.842 193.316 109.969 195.806 108.612C197.069 107.901 200.317 111.314 201.467 111.695C204.652 112.773 208.493 110.705 211.476 109.716C217.706 107.647 226.261 103.892 232.314 108.345C237.66 112.291 234.981 118.001 230.975 121.668C226.387 125.868 220.574 128.57 215.886 132.707C211.384 136.408 207.509 140.817 204.412 145.763C200.873 151.853 202.895 158.641 208.961 162.257C211.416 163.581 214.079 164.474 216.834 164.896C220.84 165.67 222.116 166.279 222.129 162.13C222.129 154.962 222.811 147.577 225.768 140.941C228.725 134.305 234.892 129.268 241.11 125.525C265.575 110.781 306.936 118.153 309.843 151.485C310.02 153.464 309.173 159.923 310.917 160.595C313.154 161.445 320.015 158.057 321.999 157.093C327.219 154.695 334.043 149.595 330.757 143.009C327.572 136.665 317.728 137.084 311.991 134.825C306.254 132.567 302.311 126.083 306.102 120.221C306.871 119.172 307.861 118.305 309.001 117.682C310.141 117.059 311.403 116.696 312.699 116.618C314.822 116.326 321.962 115.933 323.314 118.052C325.487 121.478 319.295 120.133 317.88 120.018C315.352 119.828 310.639 119.321 309.11 121.871C304.636 129.332 319.598 130.664 322.922 131.209C328.988 132.199 337.467 134.09 340.854 139.901C344.645 146.397 342.042 154.746 337.48 160.011C332.425 165.785 326.246 168.386 319.788 171.926C316.477 173.74 318.853 173.524 321.545 174.463C324.98 175.857 328.122 177.889 330.808 180.452C336.216 185.236 339.881 191.96 345.656 196.287C349.953 199.497 359.898 201.007 358.154 192.392C356.701 185.236 347.868 184.994 344.253 179.703C339.616 172.979 346.351 168.538 351.836 166.013C353.643 165.163 359.216 161.103 361.099 162.207C363.373 163.564 357.459 165.772 356.423 166.267C353.63 167.599 350.509 168.944 348.297 171.164C345.012 174.476 347.564 177.343 350.66 179.513C355.5 182.926 363.891 185.134 366.318 191.085C366.93 192.683 367.165 194.401 367.006 196.106C366.846 197.81 366.295 199.455 365.397 200.91C364.498 202.365 363.276 203.591 361.827 204.493C360.378 205.395 358.74 205.947 357.042 206.108C349.991 206.704 342.926 203.278 337.316 199.294C335.471 198.025 323.908 187.393 321.355 189.651C321.355 191.212 325.235 193.965 326.22 195.208C328.177 197.672 329.71 200.447 330.757 203.418C332.931 209.762 331.907 215.852 329.62 222.019C326.574 230.215 312.446 250.275 324.464 256.886C329.139 259.423 333.55 256.315 334.396 251.455C335.509 245.111 331.01 238.462 333.373 232.042C333.979 230.38 336.241 227.411 338.188 227.259C341.637 226.992 338.592 229.657 337.505 231.23C333.07 237.574 338.769 242.472 340.728 248.676C342.396 253.98 342.143 260.096 337.164 263.483C332.463 266.655 324.527 267.061 319.346 265.26C305.445 260.438 312.357 242.002 315.871 232.537C317.892 227.106 320.154 220.636 319.093 214.774C318.544 211.94 317.198 209.325 315.213 207.237C313.836 205.676 309.653 200.728 307.1 201.794C305.925 202.288 309.982 215.192 310.184 217.578C310.668 224.332 309.184 231.081 305.913 237.003C299.594 249.07 289.762 257.609 279.375 266.034C274.471 270.018 269.606 275.651 269.859 282.452C269.96 285.167 270.933 287.527 273.536 288.606C275.508 289.431 279.83 289.291 280.891 286.906Z" fill="#FF5500"/>
<path d="M161.879 80.1906L161.09 77.3086C160.525 75.2449 160.436 73.2422 160.822 71.3006C161.222 69.3364 162.107 67.6119 163.479 66.1272C164.864 64.6198 166.74 63.5423 169.106 62.8947C171.526 62.2324 173.695 62.1932 175.614 62.7771C177.533 63.3609 179.147 64.4012 180.455 65.898C181.782 67.3899 182.727 69.1677 183.292 71.2314L184.081 74.1134C184.646 76.1771 184.738 78.1886 184.356 80.148C183.969 82.0896 183.093 83.8116 181.725 85.3141C180.371 86.794 178.502 87.8601 176.118 88.5127C173.717 89.17 171.547 89.2093 169.61 88.6303C167.669 88.0335 166.037 86.9981 164.715 85.524C163.389 84.032 162.444 82.2542 161.879 80.1906ZM167.308 75.6066L168.096 78.4887C168.515 80.0186 169.26 81.3064 170.33 82.3521C171.4 83.3978 172.843 83.6723 174.657 83.1756C176.454 82.6838 177.538 81.7178 177.909 80.2777C178.279 78.8376 178.255 77.3526 177.837 75.8226L177.048 72.9406C176.629 71.4106 175.902 70.1179 174.868 69.0625C173.851 68.0023 172.417 67.7253 170.567 68.2318C168.788 68.7187 167.695 69.6871 167.289 71.137C166.883 72.5868 166.889 74.0767 167.308 75.6066ZM125.832 56.4387L125.043 53.5567C124.478 51.493 124.387 49.4815 124.768 47.5221C125.168 45.5578 126.054 43.8334 127.426 42.3487C128.815 40.8591 130.693 39.7905 133.06 39.1428C135.479 38.4806 137.648 38.4414 139.567 39.0252C141.487 39.609 143.1 40.6494 144.409 42.1461C145.717 43.6429 146.654 45.4232 147.219 47.4868L148.008 50.3689C148.573 52.4325 148.664 54.4441 148.283 56.4034C147.914 58.3402 147.046 60.0598 145.679 61.5623C144.325 63.0421 142.456 64.1083 140.072 64.7608C137.652 65.4231 135.474 65.4647 133.537 64.8857C131.613 64.2841 129.99 63.2462 128.669 61.7721C127.343 60.2802 126.397 58.5024 125.832 56.4387ZM131.288 51.8475L132.077 54.7295C132.495 56.2595 133.231 57.5497 134.283 58.6003C135.354 59.6459 136.796 59.9204 138.611 59.4237C140.39 58.9368 141.465 57.9732 141.835 56.5331C142.224 55.0882 142.209 53.6007 141.79 52.0708L141.001 49.1887C140.582 47.6588 139.856 46.3661 138.821 45.3107C137.786 44.2553 136.353 43.9783 134.52 44.4799C132.741 44.9669 131.649 45.9353 131.242 47.3851C130.854 48.8301 130.869 50.3175 131.288 51.8475ZM139.733 97.2673L162.347 32.3312L168.724 30.5854L146.111 95.5216L139.733 97.2673Z" fill="black"/>
</svg>
