<!-- icon.sprite.svg -->
<svg fill="none" xmlns="http://www.w3.org/2000/svg">
    <symbol id="logo" viewBox="0 0 952 281">
        <path d="M1.17997 0.266479L66.8583 0.539375C74.1401 0.354478 81.3934 1.51456 88.2542 3.96135C93.4015 5.85123 98.0079 8.97214 101.671 13.0516C105.094 17.0996 107.479 21.92 108.621 27.0963C110.029 33.102 110.706 39.2558 110.637 45.4238L110.448 87.4111C110.448 98.9716 108.348 107.698 104.149 113.59C100.656 118.895 95.6113 122.993 89.703 125.326C92.6326 126.406 95.4463 127.777 98.1017 129.419C101.103 131.326 103.724 133.775 105.829 136.641C108.362 140.175 110.272 144.115 111.477 148.293C113.057 153.939 113.765 159.794 113.576 165.654L113.324 225.045C113.324 239.559 109.825 251.532 102.826 260.966C95.8271 270.399 84.4327 275.094 68.6431 275.052L0.00415039 274.758L1.17997 0.266479ZM42.229 149.867L41.851 236.193H54.4491C61.1121 236.193 65.4865 234.675 67.5722 231.637C69.6579 228.6 70.7287 223.989 70.7847 217.803L70.9947 167.628C71.2896 163.052 70.2151 158.491 67.9082 154.528C65.8085 151.442 61.4831 149.888 54.8271 149.846L42.229 149.867ZM42.7119 37.6982L42.3969 108.909H54.9951C60.5942 108.909 64.4157 107.138 66.4594 103.597C68.6034 99.3173 69.636 94.5669 69.462 89.7834L69.6089 55.1018C69.9275 50.6007 68.9201 46.1049 66.7113 42.1698C64.7516 39.2027 60.9512 37.7122 55.31 37.6982H42.7119Z" fill="#FF5500"/>
        <path d="M127.758 0.815674L170.192 1.00461L169.227 218.31C168.983 223.237 170.048 228.14 172.313 232.523C173.33 234.275 174.816 235.709 176.604 236.662C178.393 237.616 180.412 238.051 182.434 237.918C187.347 237.918 190.832 236.238 192.932 232.796C195.269 228.376 196.372 223.408 196.124 218.415L197.069 1.10958L239.524 1.29852L238.726 216.022C238.642 235.462 234.443 250.815 226.128 262.082C217.813 273.348 204.438 278.947 186.003 278.877H178.633C160.17 278.793 146.872 273.194 138.739 262.082C130.606 250.969 126.631 235.434 126.813 215.476L127.758 0.815674Z" fill="#FF5500"/>
        <path d="M353.94 1.8L353.793 38.6859L292.776 236.173L355.872 236.446L355.704 276.334L249.061 275.872L249.229 238.986L309.49 41.499L253.764 41.2261L253.953 1.33813L353.94 1.8Z" fill="#FF5500"/>
        <path d="M466.491 2.29048L466.323 39.1343L405.327 236.685L468.423 236.958L468.255 276.845L361.612 276.363L361.78 239.456L422.041 41.9685L366.315 41.7166L366.504 1.82861L466.491 2.29048Z" fill="#FF5500"/>
        <path d="M592.867 216.081C592.909 224.88 592.001 233.657 590.158 242.26C588.64 249.627 585.593 256.593 581.214 262.708C576.991 268.488 571.311 273.044 564.752 275.913C556.765 279.175 548.179 280.713 539.556 280.427H532.543C523.904 280.658 515.315 279.047 507.346 275.703C500.769 272.759 495.067 268.158 490.801 262.351C486.368 256.221 483.257 249.236 481.667 241.84C479.778 233.238 478.884 224.447 479.001 215.64L479.673 62.8905C479.535 54.1407 480.416 45.4047 482.297 36.8584C483.941 29.6327 487.121 22.8451 491.62 16.9564C496.014 11.4165 501.743 7.08241 508.27 4.36018C516.199 1.21926 524.691 -0.252965 533.215 0.0354956H540.207C548.91 -0.175743 557.566 1.37381 565.655 4.59111C572.2 7.32101 577.908 11.7316 582.201 17.3762C586.525 23.3242 589.519 30.1335 590.977 37.3412C592.761 45.7677 593.634 54.3614 593.581 62.9744L592.867 216.081ZM551.104 61.022C551.104 46.9563 546.338 39.9024 536.805 39.8605C531.388 39.8605 527.567 41.5679 525.341 44.9829C523.115 48.4469 521.981 53.7372 521.96 60.8961L521.267 219.398C521.06 224.558 522.097 229.692 524.291 234.367C526.377 238.453 530.366 240.511 536.259 240.539C541.858 240.539 545.617 238.516 547.535 234.472C549.537 229.742 550.504 224.638 550.369 219.503L551.104 61.022Z" fill="#FF5500"/>
        <path d="M721.658 216.651C721.686 225.428 720.778 234.182 718.95 242.767C717.409 250.126 714.363 257.088 710.005 263.215C705.768 268.99 700.083 273.545 693.522 276.42C685.504 279.7 676.879 281.232 668.221 280.912H661.208C652.57 281.138 643.982 279.528 636.012 276.189C629.446 273.225 623.75 268.628 619.466 262.837C615.033 256.707 611.923 249.722 610.333 242.326C608.453 233.715 607.565 224.918 607.687 216.105L608.338 63.3762C608.284 54.6224 609.257 45.8925 611.236 37.3651C612.867 30.1455 616.04 23.3637 620.537 17.4841C624.944 11.9479 630.679 7.61507 637.209 4.88792C645.134 1.7628 653.617 0.297982 662.132 0.584213H669.166C677.861 0.368562 686.509 1.91095 694.593 5.11885C701.146 7.85577 706.861 12.2732 711.16 17.925C715.49 23.8674 718.478 30.6795 719.916 37.8899C721.67 46.3262 722.501 54.9282 722.393 63.5442L721.658 216.651ZM679.874 61.5918C679.874 47.526 675.108 40.4651 665.576 40.4091C660.158 40.4091 656.358 42.1097 654.111 45.5526C651.865 48.9956 650.752 54.307 650.731 61.4658L650.038 219.947C649.849 225.123 650.9 230.27 653.103 234.957C655.189 239.058 659.179 241.115 665.072 241.129C670.741 241.129 674.499 239.107 676.347 235.062C678.351 230.325 679.318 225.214 679.182 220.073L679.874 61.5918Z" fill="#FF5500"/>
        <path d="M780.127 3.6433L779.12 235.707L830.037 235.938L829.848 278.45L737.231 278.051L738.449 3.43335L780.127 3.6433Z" fill="#FF5500"/>
        <path d="M906.432 227.036L875.798 226.91L870.444 278.45H833.174L867.966 4.08386L917.393 4.31479L951.996 278.891L911.787 278.723L906.432 227.036ZM880.438 186.078H902.233L891.609 84.5735L880.438 186.078Z" fill="#FF5500"/>
    </symbol>
    <symbol id="lk" viewBox="0 0 667 70" >
        <path d="M658.216 70L657.009 58.7356H650.411L649.204 70H641.078L648.399 10.1379H659.181L666.986 70H658.216ZM651.296 49.8046H656.043L653.629 27.6781L651.296 49.8046Z" fill="white"/>
        <path d="M631.758 45.1379H626.448V70H617.356V10.1379H631.758C638.195 10.1379 641.092 12.8735 641.092 20.0344V34.1954C641.092 41.2758 637.954 45.1379 631.758 45.1379ZM626.448 18.2643V36.5287H628.781C631.517 36.5287 631.919 34.5977 631.919 32.1839V22.3678C631.919 20.0344 631.437 18.2643 628.781 18.2643H626.448Z" fill="white"/>
        <path d="M592.252 10.1379H612.93V18.8275H601.344V34.5172H610.436V43.6091H601.344V60.908H613.413V70H592.252V10.1379Z" fill="white"/>
        <path d="M549.706 70V10.1379H558.798V60.908H563.947V10.1379H573.039V60.908H578.189V10.1379H587.281V70H549.706Z" fill="white"/>
        <path d="M535.655 70V37.5747L529.138 70H520.046V10.1379H529.138V42.5632L535.655 10.1379H544.747V70H535.655Z" fill="white"/>
        <path d="M505.938 70V18.8275H500.628C500.628 38.1379 500.548 51.8965 499.824 60.5862C499.341 66.6206 497.249 70 490.329 70H488.076V60.7471H488.72C490.893 60.7471 491.295 59.5402 491.536 56.7241C492.099 50.6091 492.099 41.5977 492.099 10.1379H515.03V70H505.938Z" fill="white"/>
        <path d="M461.198 70V10.1379H483.164V18.8275H470.29V33.3103H475.601C481.796 33.3103 484.934 37.2528 484.934 44.3333V59.5402C484.934 66.7011 482.037 70 475.601 70H461.198ZM470.29 61.3103H472.624C475.279 61.3103 475.761 59.5402 475.761 57.2068V46.3448C475.761 43.931 475.359 42 472.624 42H470.29V61.3103Z" fill="white"/>
        <path d="M449.336 70L448.13 58.7356H441.532L440.325 70H432.198L439.52 10.1379H450.302L458.107 70H449.336ZM442.417 49.8046H447.164L444.75 27.6781L442.417 49.8046Z" fill="white"/>
        <path d="M405.413 70V10.1379H429.148V70H420.056V18.8275H414.505V70H405.413Z" fill="white"/>
        <path d="M391.737 18.8275H384.093V70H375.082V18.8275H367.438V10.1379H391.737V18.8275Z" fill="white"/>
        <path d="M343.463 10.1379H364.141V18.8275H352.555V34.5172H361.647V43.6091H352.555V60.908H364.624V70H343.463V10.1379Z" fill="white"/>
        <path d="M329.403 70V43.6896H323.208V70H314.116V10.1379H323.208V34.1149H329.403V10.1379H338.495V70H329.403Z" fill="white"/>
        <path d="M300.065 70V37.5747L293.548 70H284.456V10.1379H293.548V42.5632L300.065 10.1379H309.157V70H300.065Z" fill="white"/>
        <path d="M256.289 70V10.1379H278.255V18.8275H265.381V33.3103H270.691C276.887 33.3103 280.025 37.2528 280.025 44.3333V59.5402C280.025 66.7011 277.128 70 270.691 70H256.289ZM265.381 61.3103H267.714C270.37 61.3103 270.852 59.5402 270.852 57.2068V46.3448C270.852 43.931 270.45 42 267.714 42H265.381V61.3103Z" fill="white"/>
        <path d="M244.429 70L243.222 58.7356H236.625L235.418 70H227.291L234.613 10.1379H245.395L253.199 70H244.429ZM237.51 49.8046H242.257L239.843 27.6781L237.51 49.8046Z" fill="white"/>
        <path d="M216.218 70L208.655 44.0114V70H199.563V10.1379H208.655V34.1149L215.815 10.1379H224.666L216.218 37.977L225.551 70H216.218Z" fill="white"/>
        <path d="M175.73 70V37.5747L169.212 70H160.12V10.1379H169.212V42.5632L175.73 10.1379H184.822V70H175.73ZM180.316 0.482762C180.316 5.39081 176.534 8.04598 172.35 8.04598H172.109C167.684 8.04598 164.143 5.39081 164.143 0.482762V0H170.339V0.32184C170.339 1.68966 171.063 2.49425 172.189 2.49425H172.27C173.396 2.49425 174.201 1.68966 174.201 0.32184V0H180.316V0.482762Z" fill="white"/>
        <path d="M134.255 33.3103C140.451 33.3103 143.589 37.2528 143.589 44.3333V59.5402C143.589 66.7011 140.692 70 134.255 70H119.853V10.1379H128.945V33.3103H134.255ZM128.945 61.3103H131.278C133.934 61.3103 134.416 59.5402 134.416 57.2068V46.3448C134.416 43.931 134.014 42 131.278 42H128.945V61.3103ZM155.095 10.1379V70H146.003V10.1379H155.095Z" fill="white"/>
        <path d="M105.795 70V43.6896H99.5998V70H90.5078V10.1379H99.5998V34.1149H105.795V10.1379H114.887V70H105.795Z" fill="white"/>
        <path d="M76.4379 70V45.2988C74.5068 45.9425 72.5758 46.1034 70.8861 46.1034H70.8057C63.9666 46.1034 61.1505 42.0804 61.1505 36.5287V10.1379H70.2425V32.5862C70.2425 36.2069 71.208 36.931 73.3804 36.931H73.5413C74.9091 36.931 75.8746 36.7701 76.4379 36.4482V10.1379H85.5298V70H76.4379Z" fill="white"/>
        <path d="M47.5812 70V37.5747L41.064 70H31.972V10.1379H41.064V42.5632L47.5812 10.1379H56.6732V70H47.5812Z" fill="white"/>
        <path d="M17.8663 70V18.8275H12.556C12.556 38.1379 12.4755 51.8965 11.7514 60.5862C11.2686 66.6206 9.17669 70 2.25715 70H0.00427246V60.7471H0.647951C2.82036 60.7471 3.22266 59.5402 3.46404 56.7241C4.02726 50.6091 4.02726 41.5977 4.02726 10.1379H26.9583V70H17.8663Z" fill="white"/>
    </symbol>
    <symbol id="step-first" viewBox="0 0 407 292">
        <path d="M188.988 43.8884V247.633C188.988 251.493 190.515 255.194 193.234 257.924C195.953 260.653 199.641 262.186 203.486 262.186H246.979V233.08H217.984V58.4416H246.979V29.3352H203.486C199.641 29.3352 195.953 30.8685 193.234 33.5978C190.515 36.327 188.988 40.0287 188.988 43.8884ZM395.467 29.7718L279.484 0.665486C277.347 0.130522 275.117 0.0912119 272.963 0.55054C270.809 1.00987 268.787 1.95576 267.051 3.31643C265.316 4.6771 263.912 6.41678 262.946 8.40342C261.98 10.3901 261.478 12.5715 261.477 14.7821V276.739C261.472 278.952 261.971 281.136 262.935 283.126C263.899 285.115 265.303 286.857 267.04 288.219C268.777 289.581 270.801 290.527 272.958 290.983C275.114 291.44 277.346 291.397 279.484 290.856L395.467 261.749C398.604 260.964 401.39 259.148 403.382 256.59C405.373 254.032 406.455 250.879 406.456 247.633V43.8884C406.455 40.6422 405.373 37.4894 403.382 34.9315C401.39 32.3736 398.604 30.5574 395.467 29.7718ZM333.967 148.497C333.8 152.244 332.199 155.782 329.499 158.374C326.798 160.967 323.205 162.413 319.469 162.413C315.732 162.413 312.139 160.967 309.439 158.374C306.738 155.782 305.138 152.244 304.971 148.497V143.01C304.973 139.15 306.502 135.449 309.222 132.722C311.943 129.994 315.631 128.462 319.476 128.464C323.321 128.466 327.008 130.001 329.725 132.732C332.443 135.462 333.969 139.165 333.967 143.025V148.497Z" fill="white"/>
        <path d="M139.285 249.259C146.488 242.548 141.593 225.321 154.219 223.946C166.163 222.654 167.567 238.436 165.69 246.827C165.384 248.217 164.536 251.315 162.436 249.912C161.31 249.161 162.27 244.716 162.297 243.688C162.395 239.867 162.603 231.184 157.681 230.114C152.244 228.836 151.021 235.783 150.464 239.409C149.723 245.141 147.451 250.568 143.887 255.121C142.334 257.076 140.315 258.612 138.016 259.589C135.717 260.566 133.211 260.953 130.724 260.716C128.237 260.478 125.849 259.624 123.776 258.229C121.704 256.835 120.014 254.945 118.858 252.732C113.297 242.84 119.804 229.725 126.59 222.168C129.927 218.444 134.307 215.874 137.714 212.234C141.555 208.265 144.852 203.803 147.516 198.966C153.078 188.713 155.943 174.431 149.547 163.873C137.38 143.756 104.634 154.592 91.3268 167.527C88.6432 170.139 85.0557 173.667 85.3894 177.766C85.9595 184.809 93.2179 182.031 97.1251 179.905C107.178 174.473 117.051 164.915 129.19 165.095C139.785 165.248 147.516 174.098 144.735 184.657C142.288 193.937 133.292 200.759 125.755 205.968C116.154 212.449 106.108 218.247 95.6929 223.321C89.394 226.46 75.6838 229.892 73.3478 237.644C71.6792 243.201 75.7672 247.203 81.1484 245.744C86.9607 244.16 91.0765 238.978 97.0139 237.866C98.9745 237.505 109.097 238.714 104.175 241.715C103.063 242.396 100.838 241.479 99.6141 241.52C98.0887 241.605 96.5931 241.978 95.2063 242.618C92.2445 243.84 89.7277 245.897 86.9746 247.453C82.525 249.967 76.2539 252.482 71.2898 249.995C66.6317 247.661 64.685 241.09 66.3119 236.324C69.7881 226.141 84.8054 220.903 93.3847 216.235C104.133 210.386 115.021 204.232 124.546 196.493C128.272 193.465 132.457 189.908 134.488 185.379C136.518 180.85 135.086 175.307 129.301 175.654C118.692 176.335 110.293 187.894 101.755 193.076C91.0209 199.592 78.3257 200.939 69.7742 190.144C62.196 180.53 65.8808 168.985 72.0963 159.844C72.4579 159.302 75.0163 156.482 74.2099 155.676C73.4034 154.87 69.2597 158.218 68.8843 158.455C64.2669 161.556 60.6606 165.942 58.5112 171.069C51.3641 190.436 82.4277 217.319 58.5112 232.268C49.8207 237.714 36.7501 237.922 31.063 228.253C24.6945 217.43 31.7999 206.107 33.844 195.187C34.7339 190.45 32.0363 183.768 26.1267 186.171C24.7363 186.727 22.6366 189.519 21.121 188.616C18.7711 187.227 22.3446 184.448 23.4709 183.642C27.4338 180.864 32.3422 180.725 35.4291 184.935C39.0027 189.797 38.0711 197.285 37.4036 202.87C36.2634 212.47 31.5914 228.141 46.567 228.391C59.2343 228.6 59.9017 216.082 56.0779 207.219C51.67 197.007 44.0224 188.185 42.7848 176.793C41.5473 165.401 47.735 156.287 55.7998 148.744C56.6897 147.91 60.6943 145.062 59.1648 143.992C57.6352 142.922 53.9087 145.09 52.7824 145.673C47.3873 148.452 43.049 153.55 38.0015 157.01C29.4639 162.859 15.4478 169.333 6.72943 160.094C-0.959981 151.939 2.405 138.407 12.8059 135.017C17.6726 133.434 22.8869 132.906 27.9205 132.03C31.2438 131.461 40.9911 130.238 41.436 125.501C41.881 120.763 35.5404 122.055 33.4963 120.291C31.7443 118.777 32.5369 117.373 34.2333 116.818C36.8196 115.956 40.1012 117.693 41.6446 118.818C53.283 127.321 37.6678 134.601 30.7293 136.587C26.0016 137.977 2.32157 140.825 11.2624 151.105C19.0213 160.038 32.6621 148.785 38.2101 142.672C41.1579 139.435 43.7721 135.976 47.5125 133.503C53.4221 129.53 62.8079 129.238 62.6827 128.071C62.488 126.07 57.4406 126.39 54.3398 124.014C51.6474 122.068 49.2979 119.687 47.3873 116.97C42.7292 110.482 42.4789 102.536 45.5797 95.2975C50.5855 83.6136 61.028 74.9444 71.5819 68.4564C74.1821 66.8587 86.0012 61.7739 80.1194 57.4949C75.2666 53.98 64.9631 59.565 59.9295 60.9265C56.8288 61.7739 53.3664 62.8576 50.1961 61.4266C49.0003 60.857 42.9239 55.5221 45.6631 54.0356C47.0536 53.2576 50.6272 56.9948 51.8925 57.4116C55.3965 58.5925 59.6236 56.3279 62.9052 55.2443C69.7603 52.9797 79.1739 48.8674 85.8344 53.7439C91.7161 58.0645 88.7683 64.3163 84.3604 68.3314C79.313 72.9299 72.9167 75.8891 67.758 80.4182C62.8047 84.4713 58.541 89.299 55.1324 94.714C51.239 101.383 53.4638 108.815 60.1381 112.775C62.8396 114.225 65.7694 115.202 68.8009 115.665C73.2087 116.512 74.6131 117.179 74.627 112.636C74.627 104.786 75.3779 96.7007 78.6316 89.4347C81.8854 82.1687 88.671 76.6532 95.5122 72.5548C122.432 56.4113 167.943 64.4831 171.141 100.98C171.336 103.147 170.404 110.218 172.323 110.955C174.784 111.886 182.334 108.176 184.517 107.12C190.26 104.495 197.769 98.9097 194.154 91.6993C190.649 84.7528 179.818 85.2113 173.505 82.7383C167.192 80.2654 162.854 73.1661 167.025 66.7476C167.871 65.5982 168.96 64.6489 170.214 63.9671C171.469 63.2852 172.858 62.8874 174.283 62.802C176.619 62.4825 184.476 62.0518 185.964 64.3719C188.355 68.123 181.542 66.6504 179.984 66.5253C177.203 66.3169 172.017 65.7612 170.334 68.5537C165.412 76.7227 181.875 78.1815 185.532 78.7789C192.207 79.8625 201.537 81.9325 205.264 88.2955C209.435 95.4087 206.571 104.55 201.551 110.316C195.989 116.637 189.189 119.485 182.084 123.361C178.441 125.348 181.055 125.112 184.017 126.14C187.797 127.666 191.254 129.891 194.209 132.697C200.16 137.935 204.193 145.298 210.547 150.036C215.275 153.55 226.218 155.204 224.299 145.77C222.7 137.935 212.981 137.671 209.004 131.878C203.901 124.514 211.312 119.652 217.347 116.887C219.335 115.956 225.467 111.511 227.539 112.719C230.042 114.206 223.535 116.623 222.394 117.165C219.321 118.624 215.887 120.096 213.453 122.528C209.838 126.154 212.647 129.293 216.054 131.669C221.379 135.406 230.612 137.824 233.282 144.339C233.956 146.089 234.215 147.971 234.039 149.837C233.863 151.704 233.257 153.504 232.269 155.097C231.28 156.691 229.936 158.034 228.341 159.021C226.746 160.008 224.944 160.613 223.076 160.789C215.317 161.442 207.544 157.691 201.37 153.328C199.34 151.939 186.617 140.297 183.808 142.77C183.808 144.478 188.077 147.493 189.162 148.855C191.315 151.552 193.002 154.59 194.154 157.843C196.545 164.79 195.419 171.458 192.902 178.21C189.551 187.185 174.005 209.15 187.229 216.388C192.374 219.167 197.226 215.763 198.158 210.442C199.382 203.495 194.432 196.216 197.032 189.186C197.699 187.366 200.188 184.115 202.33 183.948C206.126 183.656 202.775 186.574 201.579 188.297C196.698 195.243 202.969 200.606 205.124 207.399C206.96 213.207 206.682 219.903 201.203 223.612C196.031 227.086 187.298 227.53 181.597 225.557C166.302 220.278 173.908 200.092 177.774 189.728C179.998 183.781 182.487 176.696 181.319 170.278C180.716 167.175 179.234 164.311 177.05 162.025C175.535 160.316 170.932 154.898 168.124 156.065C166.83 156.607 171.294 170.736 171.516 173.348C172.049 180.743 170.416 188.134 166.816 194.618C159.864 207.83 149.046 217.18 137.616 226.405C132.221 230.767 126.868 236.936 127.146 244.382C127.257 247.355 128.328 249.939 131.192 251.12C133.361 252.023 138.117 251.871 139.285 249.259Z" fill="#FF5500"/>
    </symbol>
    <symbol id="step-second" viewBox="0 0 307 280">
        <rect x="20.5" y="7.23315" width="264" height="164" rx="16" fill="white"/>
        <rect x="26.511" y="13.3896" width="251.444" height="151.733" rx="12" fill="#FF5500"/>
        <rect x="35.5" y="22.2332" width="127" height="134" rx="12" fill="white"/>
        <path d="M103.223 108.199C104.842 106.809 103.742 103.241 106.578 102.956C109.262 102.689 109.577 105.957 109.156 107.695C109.087 107.983 108.896 108.624 108.425 108.334C108.172 108.178 108.387 107.258 108.393 107.045C108.415 106.254 108.462 104.455 107.356 104.234C106.135 103.969 105.86 105.408 105.735 106.159C105.568 107.346 105.058 108.47 104.257 109.413C103.908 109.818 103.455 110.136 102.938 110.338C102.422 110.54 101.859 110.621 101.3 110.571C100.741 110.522 100.205 110.345 99.7392 110.057C99.2737 109.768 98.8939 109.376 98.6344 108.918C97.3848 106.869 98.8468 104.153 100.371 102.588C101.121 101.817 102.105 101.284 102.87 100.531C103.733 99.7085 104.474 98.7845 105.073 97.7827C106.322 95.6592 106.966 92.7013 105.529 90.5145C102.795 86.3481 95.4387 88.5925 92.4491 91.2713C91.8462 91.8122 91.0402 92.543 91.1152 93.3919C91.2433 94.8507 92.8739 94.2752 93.7518 93.835C96.0103 92.7099 98.2283 90.7303 100.955 90.7677C103.336 90.7994 105.073 92.6322 104.448 94.819C103.898 96.7411 101.877 98.1539 100.184 99.2329C98.0267 100.575 95.7699 101.776 93.43 102.827C92.0149 103.477 88.9347 104.188 88.4099 105.793C88.035 106.944 88.9535 107.773 90.1624 107.471C91.4682 107.143 92.3929 106.069 93.7268 105.839C94.1672 105.764 96.4414 106.015 95.3356 106.636C95.0857 106.777 94.5858 106.587 94.3109 106.596C93.9682 106.614 93.6322 106.691 93.3207 106.823C92.6553 107.076 92.0898 107.502 91.4713 107.825C90.4717 108.345 89.0628 108.866 87.9476 108.351C86.9011 107.868 86.4637 106.507 86.8292 105.52C87.6102 103.411 90.984 102.326 92.9114 101.359C95.3262 100.148 97.7722 98.8732 99.9121 97.2705C100.749 96.6432 101.69 95.9067 102.146 94.9686C102.602 94.0306 102.28 92.8826 100.98 92.9545C98.5969 93.0955 96.7101 95.4894 94.792 96.5627C92.3804 97.9122 89.5283 98.1913 87.6071 95.9556C85.9046 93.9645 86.7324 91.5734 88.1288 89.6801C88.21 89.5679 88.7848 88.9838 88.6036 88.8169C88.4224 88.65 87.4915 89.3435 87.4071 89.3924C86.3698 90.0347 85.5596 90.943 85.0767 92.005C83.4711 96.016 90.4498 101.584 85.0767 104.68C83.1243 105.808 80.1879 105.851 78.9102 103.848C77.4794 101.607 79.0757 99.2616 79.535 97C79.7349 96.0189 79.1289 94.6349 77.8012 95.1327C77.4888 95.2477 77.0171 95.8261 76.6766 95.6391C76.1487 95.3513 76.9515 94.7759 77.2045 94.609C78.0949 94.0335 79.1976 94.0047 79.8911 94.8766C80.6939 95.8836 80.4846 97.4345 80.3347 98.5912C80.0785 100.579 79.0289 103.825 82.3933 103.877C85.2392 103.92 85.3891 101.328 84.53 99.4918C83.5398 97.377 81.8216 95.5499 81.5436 93.1905C81.2656 90.831 82.6557 88.9435 84.4676 87.3811C84.6675 87.2085 85.5672 86.6186 85.2236 86.3971C84.8799 86.1755 84.0427 86.6244 83.7897 86.7452C82.5776 87.3207 81.603 88.3767 80.469 89.0931C78.5509 90.3045 75.4021 91.6453 73.4434 89.7319C71.7159 88.0429 72.4719 85.2404 74.8085 84.5383C75.9019 84.2103 77.0733 84.101 78.2042 83.9197C78.9508 83.8017 81.1406 83.5485 81.2406 82.5673C81.3406 81.5862 79.9161 81.8538 79.4569 81.4883C79.0633 81.1747 79.2413 80.8841 79.6224 80.769C80.2035 80.5906 80.9407 80.9503 81.2875 81.1833C83.9022 82.9443 80.394 84.452 78.8352 84.8634C77.7731 85.1512 72.4531 85.741 74.4618 87.8703C76.2049 89.7204 79.2694 87.3897 80.5159 86.1237C81.1781 85.4533 81.7654 84.7368 82.6057 84.2247C83.9334 83.4018 86.042 83.3413 86.0139 83.0996C85.9702 82.6853 84.8362 82.7515 84.1396 82.2595C83.5347 81.8563 83.0068 81.3633 82.5776 80.8007C81.5311 79.4569 81.4749 77.8111 82.1715 76.312C83.2961 73.8922 85.6422 72.0967 88.0132 70.753C88.5973 70.4221 91.2526 69.369 89.9312 68.4828C88.841 67.7548 86.5262 68.9115 85.3954 69.1935C84.6987 69.369 83.9209 69.5934 83.2086 69.2971C82.94 69.1791 81.5749 68.0742 82.1903 67.7663C82.5027 67.6052 83.3055 68.3792 83.5898 68.4655C84.377 68.7101 85.3266 68.2411 86.0639 68.0167C87.604 67.5476 89.7188 66.696 91.2152 67.7059C92.5366 68.6008 91.8743 69.8956 90.884 70.7271C89.7501 71.6795 88.3131 72.2924 87.1541 73.2304C86.0413 74.0698 85.0834 75.0697 84.3176 76.1912C83.4429 77.5723 83.9428 79.1117 85.4422 79.9317C86.0491 80.232 86.7074 80.4344 87.3884 80.5302C88.3787 80.7057 88.6942 80.8438 88.6973 79.9029C88.6973 78.2772 88.866 76.6026 89.597 75.0978C90.328 73.5929 91.8524 72.4506 93.3894 71.6018C99.4372 68.2583 109.662 69.9301 110.38 77.4888C110.424 77.9377 110.215 79.4023 110.646 79.5548C111.199 79.7475 112.895 78.9793 113.385 78.7606C114.676 78.2168 116.362 77.0601 115.55 75.5668C114.763 74.1281 112.329 74.2231 110.911 73.7109C109.493 73.1987 108.518 71.7284 109.456 70.3991C109.646 70.161 109.89 69.9644 110.172 69.8232C110.454 69.682 110.766 69.5996 111.086 69.5819C111.611 69.5157 113.376 69.4265 113.71 69.9071C114.248 70.6839 112.717 70.3789 112.367 70.353C111.742 70.3099 110.577 70.1948 110.199 70.7731C109.093 72.465 112.792 72.7671 113.613 72.8909C115.113 73.1153 117.209 73.544 118.046 74.8618C118.983 76.335 118.34 78.2283 117.212 79.4224C115.963 80.7316 114.435 81.3214 112.839 82.1242C112.02 82.5357 112.608 82.4868 113.273 82.6997C114.122 83.0158 114.899 83.4765 115.563 84.0578C116.9 85.1425 117.806 86.6675 119.233 87.6487C120.295 88.3767 122.754 88.7191 122.323 86.7654C121.964 85.1425 119.78 85.0879 118.887 83.888C117.74 82.363 119.405 81.356 120.761 80.7834C121.208 80.5906 122.585 79.6699 123.051 79.9202C123.613 80.2281 122.151 80.7287 121.895 80.8409C121.204 81.143 120.433 81.4481 119.886 81.9516C119.074 82.7026 119.705 83.3528 120.47 83.8449C121.667 84.6189 123.741 85.1195 124.341 86.469C124.492 86.8314 124.55 87.2211 124.511 87.6076C124.471 87.9942 124.335 88.367 124.113 88.697C123.891 89.027 123.589 89.3052 123.231 89.5097C122.872 89.7142 122.468 89.8395 122.048 89.8758C120.305 90.011 118.559 89.2341 117.172 88.3306C116.715 88.0429 113.857 85.6317 113.226 86.1439C113.226 86.4978 114.185 87.1222 114.429 87.4041C114.912 87.9629 115.292 88.592 115.55 89.2658C116.088 90.7044 115.834 92.0856 115.269 93.4839C114.516 95.3427 111.024 99.8918 113.995 101.391C115.15 101.966 116.241 101.261 116.45 100.159C116.725 98.7207 115.613 97.213 116.197 95.757C116.347 95.3801 116.906 94.7068 117.387 94.6723C118.24 94.6119 117.487 95.2161 117.218 95.5729C116.122 97.0116 117.531 98.1222 118.015 99.5292C118.427 100.732 118.365 102.119 117.134 102.887C115.972 103.606 114.01 103.698 112.729 103.29C109.293 102.196 111.002 98.0157 111.87 95.8692C112.37 94.6378 112.929 93.1703 112.667 91.841C112.531 91.1985 112.198 90.6053 111.708 90.1318C111.367 89.7779 110.333 88.6558 109.702 88.8975C109.412 89.0097 110.415 91.9359 110.465 92.4769C110.584 94.0085 110.217 95.5391 109.409 96.8821C107.847 99.6184 105.416 101.555 102.849 103.465C101.636 104.369 100.434 105.646 100.496 107.189C100.521 107.804 100.762 108.34 101.405 108.584C101.893 108.771 102.961 108.74 103.223 108.199Z" fill="#FF5500"/>
        <rect x="9.50006" y="180.233" width="286" height="21" rx="10.5" fill="white"/>
        <mask id="path-6-outside-1_2563_426" maskUnits="userSpaceOnUse" x="171.91" y="54.7415" width="135" height="226" fill="black">
        <rect fill="white" x="171.91" y="54.7415" width="135" height="226"/>
        <path d="M276.362 56.7415C292.179 56.7415 304.299 70.087 304.299 85.6545V248.926C304.299 264.493 292.167 277.838 276.362 277.838H201.847C186.03 277.838 173.91 264.493 173.91 248.926V85.6545C173.91 70.087 186.042 56.7415 201.847 56.7415H276.362Z"/>
        </mask>
        <path d="M276.362 56.7415C292.179 56.7415 304.299 70.087 304.299 85.6545V248.926C304.299 264.493 292.167 277.838 276.362 277.838H201.847C186.03 277.838 173.91 264.493 173.91 248.926V85.6545C173.91 70.087 186.042 56.7415 201.847 56.7415H276.362Z" fill="white"/>
        <path d="M304.299 248.926L306.299 248.926V248.926H304.299ZM173.91 248.926H171.91V248.926L173.91 248.926ZM276.362 56.7415V58.7415C290.975 58.7415 302.299 71.0895 302.299 85.6545H304.299H306.299C306.299 69.0846 293.383 54.7415 276.362 54.7415V56.7415ZM304.299 85.6545H302.299V248.926H304.299H306.299V85.6545H304.299ZM304.299 248.926L302.299 248.926C302.299 263.49 290.964 275.838 276.362 275.838V277.838V279.838C293.371 279.838 306.299 265.496 306.299 248.926L304.299 248.926ZM276.362 277.838V275.838H201.847V277.838V279.838H276.362V277.838ZM201.847 277.838V275.838C187.234 275.838 175.91 263.491 175.91 248.926L173.91 248.926L171.91 248.926C171.91 265.496 184.826 279.838 201.847 279.838V277.838ZM173.91 248.926H175.91V85.6545H173.91H171.91V248.926H173.91ZM173.91 85.6545H175.91C175.91 71.09 187.245 58.7415 201.847 58.7415V56.7415V54.7415C184.838 54.7415 171.91 69.0841 171.91 85.6545H173.91ZM201.847 56.7415V58.7415H276.362V56.7415V54.7415H201.847V56.7415Z" fill="white" mask="url(#path-6-outside-1_2563_426)"/>
        <path d="M273.624 61.0772C288.348 61.0773 299.632 73.8995 299.632 88.8565V245.726C299.632 260.682 288.338 273.504 273.624 273.504H204.254C189.529 273.504 178.246 260.682 178.246 245.726V88.8565C178.246 73.8995 189.539 61.0773 204.254 61.0772H273.624Z" fill="#FF5500"/>
        <rect x="201.5" y="106.233" width="75" height="122" rx="12" fill="white"/>
        <path d="M243.651 188.747C245.269 187.357 244.169 183.789 247.006 183.505C249.689 183.237 250.005 186.506 249.583 188.244C249.514 188.531 249.324 189.173 248.852 188.882C248.599 188.727 248.815 187.806 248.821 187.593C248.843 186.802 248.89 185.004 247.784 184.782C246.562 184.517 246.287 185.956 246.162 186.707C245.996 187.894 245.485 189.018 244.685 189.961C244.336 190.366 243.882 190.684 243.366 190.887C242.849 191.089 242.286 191.169 241.727 191.12C241.169 191.071 240.632 190.894 240.167 190.605C239.701 190.316 239.321 189.925 239.062 189.466C237.812 187.418 239.274 184.702 240.799 183.136C241.548 182.365 242.532 181.833 243.298 181.079C244.161 180.257 244.901 179.333 245.5 178.331C246.75 176.208 247.393 173.25 245.956 171.063C243.223 166.897 235.866 169.141 232.877 171.82C232.274 172.361 231.468 173.092 231.543 173.94C231.671 175.399 233.301 174.824 234.179 174.383C236.438 173.258 238.656 171.279 241.383 171.316C243.763 171.348 245.5 173.181 244.875 175.367C244.326 177.29 242.304 178.702 240.611 179.781C238.454 181.123 236.197 182.324 233.857 183.375C232.442 184.025 229.362 184.736 228.837 186.342C228.462 187.493 229.381 188.321 230.59 188.019C231.896 187.691 232.82 186.618 234.154 186.388C234.595 186.313 236.869 186.563 235.763 187.185C235.513 187.326 235.013 187.136 234.738 187.144C234.396 187.162 234.06 187.239 233.748 187.372C233.083 187.625 232.517 188.051 231.899 188.373C230.899 188.894 229.49 189.415 228.375 188.9C227.328 188.416 226.891 187.055 227.257 186.068C228.038 183.959 231.411 182.874 233.339 181.908C235.754 180.696 238.2 179.422 240.339 177.819C241.177 177.192 242.117 176.455 242.573 175.517C243.029 174.579 242.707 173.431 241.408 173.503C239.024 173.644 237.137 176.038 235.219 177.111C232.808 178.461 229.956 178.74 228.034 176.504C226.332 174.513 227.16 172.122 228.556 170.229C228.637 170.116 229.212 169.532 229.031 169.365C228.85 169.198 227.919 169.892 227.835 169.941C226.797 170.583 225.987 171.492 225.504 172.553C223.898 176.564 230.877 182.132 225.504 185.228C223.552 186.356 220.615 186.399 219.338 184.397C217.907 182.155 219.503 179.81 219.962 177.549C220.162 176.567 219.556 175.183 218.229 175.681C217.916 175.796 217.445 176.375 217.104 176.188C216.576 175.9 217.379 175.324 217.632 175.157C218.522 174.582 219.625 174.553 220.318 175.425C221.121 176.432 220.912 177.983 220.762 179.14C220.506 181.128 219.456 184.374 222.821 184.425C225.667 184.468 225.817 181.876 224.957 180.04C223.967 177.925 222.249 176.098 221.971 173.739C221.693 171.379 223.083 169.492 224.895 167.93C225.095 167.757 225.995 167.167 225.651 166.946C225.307 166.724 224.47 167.173 224.217 167.294C223.005 167.869 222.03 168.925 220.896 169.642C218.978 170.853 215.829 172.194 213.871 170.28C212.143 168.591 212.899 165.789 215.236 165.087C216.329 164.759 217.501 164.649 218.632 164.468C219.378 164.35 221.568 164.097 221.668 163.116C221.768 162.135 220.343 162.402 219.884 162.037C219.491 161.723 219.669 161.433 220.05 161.317C220.631 161.139 221.368 161.499 221.715 161.732C224.33 163.493 220.821 165 219.263 165.412C218.201 165.7 212.881 166.289 214.889 168.419C216.632 170.269 219.697 167.938 220.943 166.672C221.606 166.002 222.193 165.285 223.033 164.773C224.361 163.95 226.469 163.89 226.441 163.648C226.398 163.234 225.264 163.3 224.567 162.808C223.962 162.405 223.434 161.912 223.005 161.349C221.959 160.005 221.902 158.36 222.599 156.86C223.724 154.441 226.07 152.645 228.441 151.301C229.025 150.971 231.68 149.917 230.359 149.031C229.268 148.303 226.954 149.46 225.823 149.742C225.126 149.917 224.348 150.142 223.636 149.846C223.367 149.728 222.002 148.623 222.618 148.315C222.93 148.154 223.733 148.928 224.017 149.014C224.804 149.259 225.754 148.79 226.491 148.565C228.031 148.096 230.146 147.244 231.643 148.254C232.964 149.149 232.302 150.444 231.311 151.276C230.177 152.228 228.74 152.841 227.582 153.779C226.469 154.618 225.511 155.618 224.745 156.74C223.87 158.121 224.37 159.66 225.87 160.48C226.477 160.78 227.135 160.983 227.816 161.079C228.806 161.254 229.122 161.392 229.125 160.451C229.125 158.826 229.293 157.151 230.024 155.646C230.755 154.141 232.28 152.999 233.817 152.15C239.865 148.807 250.089 150.479 250.808 158.037C250.851 158.486 250.642 159.951 251.073 160.103C251.626 160.296 253.322 159.528 253.813 159.309C255.103 158.765 256.79 157.609 255.978 156.115C255.19 154.677 252.757 154.772 251.339 154.259C249.92 153.747 248.946 152.277 249.883 150.948C250.073 150.71 250.318 150.513 250.599 150.372C250.881 150.23 251.193 150.148 251.514 150.13C252.038 150.064 253.803 149.975 254.138 150.456C254.675 151.232 253.144 150.927 252.794 150.902C252.17 150.858 251.004 150.743 250.626 151.322C249.521 153.013 253.219 153.316 254.041 153.439C255.54 153.664 257.636 154.092 258.474 155.41C259.411 156.883 258.767 158.777 257.64 159.971C256.39 161.28 254.862 161.87 253.266 162.673C252.448 163.084 253.035 163.035 253.7 163.248C254.549 163.564 255.326 164.025 255.99 164.606C257.327 165.691 258.233 167.216 259.661 168.197C260.723 168.925 263.181 169.268 262.75 167.314C262.391 165.691 260.207 165.636 259.314 164.436C258.167 162.911 259.833 161.904 261.188 161.332C261.635 161.139 263.013 160.218 263.478 160.469C264.04 160.777 262.578 161.277 262.322 161.389C261.632 161.692 260.86 161.997 260.314 162.5C259.501 163.251 260.132 163.901 260.898 164.393C262.094 165.167 264.168 165.668 264.768 167.017C264.92 167.38 264.978 167.77 264.938 168.156C264.899 168.543 264.763 168.915 264.541 169.245C264.318 169.575 264.016 169.854 263.658 170.058C263.3 170.263 262.895 170.388 262.475 170.424C260.732 170.559 258.986 169.783 257.599 168.879C257.143 168.591 254.284 166.18 253.653 166.692C253.653 167.046 254.612 167.671 254.856 167.953C255.34 168.511 255.719 169.141 255.978 169.814C256.515 171.253 256.262 172.634 255.696 174.032C254.944 175.891 251.451 180.44 254.422 181.939C255.578 182.515 256.668 181.81 256.877 180.708C257.152 179.269 256.04 177.761 256.624 176.305C256.774 175.929 257.333 175.255 257.814 175.221C258.667 175.16 257.914 175.765 257.646 176.121C256.549 177.56 257.958 178.671 258.442 180.078C258.855 181.28 258.792 182.667 257.561 183.436C256.399 184.155 254.438 184.247 253.157 183.838C249.72 182.745 251.429 178.564 252.298 176.418C252.798 175.186 253.357 173.719 253.094 172.389C252.959 171.747 252.626 171.154 252.135 170.68C251.795 170.326 250.761 169.204 250.13 169.446C249.839 169.558 250.842 172.484 250.892 173.025C251.012 174.557 250.645 176.088 249.836 177.431C248.274 180.167 245.844 182.103 243.276 184.014C242.064 184.917 240.861 186.195 240.924 187.737C240.949 188.353 241.189 188.888 241.833 189.133C242.32 189.32 243.388 189.288 243.651 188.747Z" fill="#FF5500"/>
        <circle cx="239.104" cy="263.666" r="5.66916" fill="white"/>
        <rect x="216.431" y="65.2464" width="45.3532" height="11.3383" rx="5.66916" fill="white"/>
    </symbol>
    <symbol id="step-third" viewBox="0 0 340 292">
        <path d="M207.604 275.407C217.625 266.072 210.816 242.106 228.38 240.192C244.997 238.395 246.951 260.351 244.339 272.025C243.914 273.958 242.734 278.268 239.813 276.316C238.246 275.272 239.581 269.087 239.619 267.657C239.755 262.342 240.045 250.262 233.197 248.774C225.633 246.996 223.931 256.659 223.157 261.704C222.126 269.679 218.966 277.23 214.007 283.564C211.846 286.283 209.038 288.419 205.84 289.779C202.642 291.138 199.154 291.677 195.694 291.346C192.234 291.016 188.912 289.827 186.029 287.887C183.146 285.947 180.795 283.318 179.188 280.239C171.45 266.478 180.503 248.233 189.943 237.718C194.586 232.539 200.679 228.963 205.419 223.899C210.763 218.377 215.349 212.17 219.056 205.441C226.794 191.177 230.779 171.308 221.881 156.619C204.954 128.633 159.398 143.708 140.886 161.703C137.152 165.336 132.161 170.245 132.626 175.947C133.419 185.746 143.517 181.881 148.952 178.924C162.938 171.366 176.673 158.069 193.56 158.32C208.301 158.533 219.056 170.845 215.187 185.534C211.783 198.445 199.267 207.934 188.782 215.182C175.425 224.198 161.449 232.265 146.96 239.323C138.197 243.691 119.123 248.465 115.873 259.249C113.552 266.98 119.239 272.547 126.726 270.518C134.812 268.314 140.537 261.105 148.798 259.559C151.525 259.056 165.608 260.738 158.76 264.912C157.212 265.859 154.117 264.584 152.415 264.642C150.293 264.76 148.212 265.278 146.283 266.169C142.162 267.87 138.661 270.73 134.831 272.895C128.641 276.393 119.916 279.891 113.01 276.432C106.53 273.185 103.822 264.043 106.085 257.413C110.921 243.246 131.813 235.96 143.749 229.465C158.702 221.328 173.849 212.766 187.099 202.001C192.284 197.787 198.106 192.839 200.931 186.539C203.755 180.238 201.762 172.526 193.715 173.009C178.955 173.956 167.271 190.037 155.394 197.246C140.46 206.311 122.799 208.186 110.902 193.168C100.359 179.793 105.485 163.732 114.132 151.014C114.635 150.261 118.195 146.337 117.073 145.216C115.951 144.095 110.186 148.753 109.664 149.082C103.24 153.396 98.2231 159.498 95.2329 166.631C85.2899 193.574 128.505 230.973 95.2329 251.77C83.1427 259.346 64.959 259.636 57.0471 246.184C48.1874 231.128 58.0724 215.376 60.916 200.184C62.154 193.593 58.4012 184.297 50.1799 187.64C48.2454 188.413 45.3244 192.298 43.2159 191.042C39.9467 189.109 44.9182 185.244 46.4851 184.123C51.9982 180.257 58.8268 180.064 63.1213 185.92C68.0928 192.685 66.7967 203.102 65.8682 210.872C64.2819 224.228 57.7822 246.029 78.6161 246.377C96.2389 246.667 97.1674 229.253 91.8477 216.922C85.7155 202.716 75.0761 190.443 73.3544 174.594C71.6328 158.745 80.241 146.066 91.4608 135.572C92.6988 134.412 98.27 130.45 96.1421 128.961C94.0142 127.473 88.8299 130.488 87.263 131.3C79.7574 135.166 73.722 142.259 66.7 147.071C54.8225 155.208 35.3234 164.215 23.1944 151.362C12.497 140.017 17.1783 121.192 31.6479 116.476C38.4185 114.272 45.6726 113.538 52.6753 112.32C57.2986 111.528 70.859 109.827 71.478 103.236C72.097 96.6455 63.276 98.443 60.4324 95.9884C57.995 93.8816 59.0976 91.9295 61.4576 91.1564C65.0557 89.9581 69.621 92.3741 71.7682 93.9396C87.9594 105.768 66.2357 115.896 56.5828 118.66C50.0058 120.593 17.0623 124.555 29.5007 138.857C40.2949 151.285 59.2717 135.63 66.9901 127.125C71.0911 122.622 74.7279 117.809 79.9315 114.369C88.1529 108.841 101.21 108.435 101.036 106.812C100.765 104.029 93.7434 104.473 89.4296 101.168C85.684 98.4603 82.4153 95.1487 79.7574 91.3691C73.2771 82.343 72.9289 71.2876 77.2426 61.2179C84.2066 44.9633 98.7343 32.9028 113.417 23.8767C117.034 21.654 133.477 14.5801 125.294 8.62717C118.543 3.73727 104.209 11.507 97.2061 13.4011C92.8923 14.5801 88.0755 16.0877 83.665 14.0969C82.0014 13.3045 73.5479 5.88263 77.3587 3.81457C79.2932 2.73222 84.2647 7.93138 86.025 8.51121C90.8998 10.1541 96.7805 7.00366 101.346 5.4961C110.883 2.34568 123.979 -3.37532 133.245 3.4087C141.427 9.41962 137.326 18.1171 131.194 23.7028C124.172 30.1003 115.274 34.217 108.097 40.5179C101.206 46.1565 95.2743 52.8728 90.5322 60.4061C85.1158 69.6834 88.2109 80.0237 97.4962 85.5321C101.254 87.5492 105.33 88.9089 109.548 89.5523C115.68 90.7312 117.634 91.6589 117.653 85.3388C117.653 74.4186 118.698 63.1699 123.224 53.0616C127.751 42.9532 137.191 35.2801 146.708 29.5784C184.159 7.11961 247.473 18.349 251.922 69.1229C252.193 72.138 250.897 81.9758 253.567 83.0001C256.991 84.2951 267.495 79.1346 270.532 77.6657C278.521 74.0127 288.967 66.2431 283.937 56.212C279.063 46.5481 263.993 47.1859 255.211 43.7456C246.429 40.3053 240.393 30.4288 246.197 21.4994C247.374 19.9004 248.888 18.5798 250.634 17.6311C252.379 16.6825 254.311 16.1292 256.294 16.0104C259.544 15.5658 270.474 14.9667 272.544 18.1944C275.871 23.4129 266.392 21.3641 264.225 21.1902C260.357 20.9003 253.141 20.1272 250.8 24.012C243.953 35.3767 266.856 37.4061 271.944 38.2372C281.229 39.7448 294.209 42.6246 299.394 51.4767C305.197 61.3725 301.212 74.0901 294.229 82.1111C286.491 90.9052 277.031 94.8673 267.147 100.26C262.078 103.024 265.715 102.695 269.835 104.125C275.094 106.249 279.904 109.344 284.015 113.248C292.294 120.535 297.904 130.778 306.744 137.369C313.322 142.259 328.546 144.559 325.876 131.435C323.651 120.535 310.13 120.167 304.597 112.108C297.498 101.864 307.808 95.0993 316.204 91.2531C318.97 89.9582 327.501 83.7733 330.383 85.4548C333.865 87.5229 324.812 90.8858 323.226 91.6396C318.951 93.669 314.173 95.7178 310.787 99.1002C305.758 104.145 309.665 108.513 314.405 111.818C321.814 117.017 334.658 120.38 338.373 129.445C339.31 131.879 339.67 134.496 339.426 137.093C339.181 139.689 338.338 142.194 336.963 144.411C335.587 146.627 333.717 148.496 331.498 149.869C329.28 151.243 326.773 152.085 324.174 152.329C313.38 153.237 302.566 148.019 293.977 141.95C291.153 140.017 273.453 123.82 269.545 127.261C269.545 129.638 275.484 133.832 276.993 135.726C279.988 139.479 282.335 143.706 283.937 148.231C287.265 157.895 285.698 167.172 282.196 176.566C277.534 189.051 255.907 219.608 274.304 229.678C281.461 233.544 288.213 228.808 289.509 221.406C291.211 211.742 284.324 201.614 287.942 191.834C288.87 189.302 292.333 184.78 295.312 184.548C300.593 184.142 295.931 188.201 294.267 190.597C287.477 200.261 296.202 207.722 299.2 217.173C301.754 225.252 301.367 234.568 293.745 239.728C286.549 244.56 274.401 245.179 266.469 242.434C245.191 235.09 255.772 207.007 261.15 192.588C264.245 184.316 267.708 174.459 266.083 165.529C265.243 161.214 263.182 157.229 260.144 154.049C258.035 151.671 251.632 144.134 247.725 145.757C245.926 146.511 252.135 166.167 252.445 169.801C253.185 180.089 250.913 190.371 245.906 199.392C236.234 217.772 221.184 230.78 205.283 243.613C197.778 249.682 190.33 258.264 190.717 268.623C190.872 272.759 192.361 276.354 196.346 277.997C199.364 279.254 205.98 279.041 207.604 275.407Z" fill="#FF5500"/>
        <rect x="3.97207" y="139.633" width="97.6562" height="40.6044" rx="14.7303" transform="rotate(4.56746 3.97207 139.633)" fill="white"/>
        <rect x="3.97207" y="139.633" width="97.6562" height="40.6044" rx="14.7303" transform="rotate(4.56746 3.97207 139.633)" stroke="white" stroke-width="0.443238"/>
        <path d="M78.9732 169.519L88.4847 166.421L79.6297 161.301L79.7697 159.549L90.6178 166.083L90.5257 167.235L78.8314 171.294L78.9732 169.519Z" fill="black"/>
        <path d="M78.7513 156.854L70.9709 173.53L69.0194 173.374L76.7997 156.698L78.7513 156.854Z" fill="black"/>
        <path d="M67.9928 170.428L57.0911 164.564L57.1832 163.412L68.9311 158.683L68.7911 160.435L59.2491 164.062L68.1346 168.653L67.9928 170.428Z" fill="black"/>
        <path d="M50.9489 170.676C50.9909 170.151 51.1401 169.764 51.3965 169.517C51.6614 169.262 52.0172 169.152 52.4639 169.188C52.9185 169.224 53.2602 169.39 53.4891 169.684C53.7265 169.971 53.8242 170.377 53.7822 170.902C53.7416 171.412 53.5809 171.793 53.3004 172.047C53.0198 172.301 52.6562 172.41 52.2094 172.374C51.8097 172.342 51.4863 172.194 51.2392 171.93C51.0006 171.658 50.9038 171.24 50.9489 170.676Z" fill="black"/>
        <path d="M44.7711 170.183C44.813 169.658 44.9622 169.271 45.2186 169.024C45.4835 168.769 45.8393 168.659 46.2861 168.695C46.7407 168.731 47.0824 168.897 47.3113 169.191C47.5486 169.478 47.6463 169.884 47.6044 170.409C47.5637 170.919 47.4031 171.3 47.1225 171.554C46.8419 171.808 46.4783 171.917 46.0316 171.881C45.6318 171.849 45.3084 171.701 45.0614 171.437C44.8228 171.165 44.726 170.747 44.7711 170.183Z" fill="black"/>
        <path d="M38.5933 169.689C38.6353 169.164 38.7845 168.778 39.0409 168.53C39.3058 168.275 39.6616 168.165 40.1083 168.201C40.5629 168.237 40.9047 168.403 41.1335 168.697C41.3709 168.984 41.4686 169.39 41.4267 169.915C41.386 170.425 41.2253 170.806 40.9448 171.06C40.6642 171.314 40.3006 171.423 39.8538 171.387C39.4541 171.355 39.1307 171.207 38.8836 170.943C38.645 170.671 38.5483 170.253 38.5933 169.689Z" fill="black"/>
        <path d="M24.7613 165.188L34.2728 162.091L25.4178 156.97L25.5577 155.219L36.4059 161.753L36.3138 162.905L24.6195 166.963L24.7613 165.188Z" fill="black"/>
        <path d="M22.3818 166.785L11.4802 160.921L11.5722 159.769L23.3201 155.04L23.1802 156.792L13.6381 160.419L22.5237 165.009L22.3818 166.785Z" fill="black"/>
        <rect x="194.925" y="231.315" width="100.272" height="39.4881" rx="12.2629" transform="rotate(-14.3392 194.925 231.315)" fill="white"/>
        <rect x="194.925" y="231.315" width="100.272" height="39.4881" rx="12.2629" transform="rotate(-14.3392 194.925 231.315)" stroke="white" stroke-width="0.443238"/>
        <path d="M273.681 234.877L280.844 229.429L271.84 227.677L271.452 226.159L282.567 228.519L282.816 229.493L274.066 236.385L273.681 234.877Z" fill="black"/>
        <path d="M269.787 224.159L268.04 240.58L266.358 241.01L268.115 224.586L269.787 224.159Z" fill="black"/>
        <path d="M264.62 238.799L253.637 236.952L253.388 235.978L262.006 228.574L262.394 230.091L255.341 235.926L264.235 237.291L264.62 238.799Z" fill="black"/>
        <path d="M250.293 243.98C250.171 243.502 250.201 243.134 250.383 242.876C250.563 242.611 250.82 242.436 251.155 242.351C251.504 242.261 251.824 242.289 252.116 242.433C252.406 242.57 252.612 242.878 252.734 243.356C252.855 243.828 252.824 244.204 252.64 244.484C252.455 244.757 252.188 244.938 251.84 245.028C251.505 245.113 251.194 245.08 250.907 244.927C250.619 244.768 250.414 244.452 250.293 243.98Z" fill="black"/>
        <path d="M244.982 245.337C244.86 244.858 244.889 244.49 245.071 244.233C245.251 243.968 245.509 243.793 245.844 243.707C246.193 243.618 246.513 243.646 246.804 243.79C247.094 243.927 247.301 244.234 247.423 244.713C247.544 245.185 247.512 245.561 247.329 245.841C247.144 246.114 246.877 246.295 246.528 246.384C246.193 246.47 245.882 246.436 245.596 246.284C245.307 246.124 245.103 245.809 244.982 245.337Z" fill="black"/>
        <path d="M239.677 246.694C239.555 246.215 239.585 245.847 239.766 245.589C239.946 245.325 240.204 245.15 240.539 245.064C240.888 244.975 241.208 245.002 241.5 245.146C241.79 245.283 241.996 245.591 242.118 246.07C242.239 246.542 242.207 246.917 242.024 247.197C241.839 247.471 241.572 247.652 241.223 247.741C240.888 247.827 240.577 247.793 240.291 247.641C240.002 247.481 239.798 247.166 239.677 246.694Z" fill="black"/>
        <path d="M226.63 246.903L233.793 241.455L224.79 239.703L224.402 238.185L235.516 240.545L235.765 241.52L227.016 248.411L226.63 246.903Z" fill="black"/>
        <path d="M225.072 248.907L214.089 247.06L213.84 246.086L222.458 238.682L222.846 240.2L215.793 246.035L224.687 247.4L225.072 248.907Z" fill="black"/>
        <g clip-path="url(#clip0_2563_395)">
            <path d="M232.467 69.4731L224.249 68.4151L225.307 60.194L200.644 57.0192L199.586 65.2403L191.367 64.1823L190.309 72.4034L182.088 71.3451L178.913 96.0057L187.134 97.064L186.076 105.285L194.295 106.343L193.237 114.561L217.9 117.736L218.958 109.518L227.176 110.576L228.234 102.355L236.456 103.413L239.63 78.7524L231.409 77.6942L232.467 69.4731ZM213.912 83.7963L205.691 82.738L204.632 90.9591L196.411 89.9008L197.469 81.6797L205.691 82.738L206.748 74.5196L214.97 75.5779L213.912 83.7963Z" fill="black"/>
            <path d="M213.911 83.802L205.69 82.7437L204.632 90.9648L196.411 89.9065L197.469 81.6854L205.69 82.7437L206.748 74.5253L214.969 75.5836L213.911 83.802Z" fill="white"/>
            <path d="M148.017 75.3163L139.796 74.258L138.738 82.4791L130.517 81.4208L131.575 73.1997L139.796 74.258L140.854 66.0396L149.075 67.0979L148.017 75.3163Z" fill="white"/>
            <path d="M166.71 61.0091L158.492 59.9511L159.55 51.73L134.887 48.5552L133.828 56.7763L125.61 55.7183L124.552 63.9394L116.331 62.8811L113.156 87.5417L121.377 88.6L120.319 96.8211L128.537 97.879L127.479 106.097L152.143 109.272L153.201 101.054L161.419 102.112L162.477 93.8907L170.698 94.949L173.873 70.2884L165.652 69.2302L166.71 61.0091ZM148.154 75.3323L139.933 74.274L138.875 82.4951L130.654 81.4368L131.712 73.2157L139.933 74.274L140.991 66.0557L149.212 67.1139L148.154 75.3323Z" fill="black"/>
        </g>
        <path d="M236.052 83.612L255.872 73.3604L255.872 81.5617" stroke="black" stroke-width="1.91578"/>
        <defs>
            <clipPath id="clip0_2563_395">
                <rect width="140.901" height="47.0429" fill="white" transform="translate(108.111 61.8232) rotate(7.33525)"/>
            </clipPath>
        </defs>
    </symbol>
    <symbol id="step-forth" viewBox="0 0 368 300">
        <rect x="1.42438" y="55.0954" width="186.723" height="254.14" rx="3.19296" transform="rotate(-16.7901 1.42438 55.0954)" fill="white" stroke="white" stroke-width="1.48338"/>
        <rect x="42.3903" y="142.067" width="157.184" height="11.2453" rx="5.62267" transform="rotate(-16.79 42.3903 142.067)" fill="white"/>
        <rect x="48.4274" y="162.061" width="157.184" height="11.2453" rx="5.62267" transform="rotate(-16.79 48.4274 162.061)" fill="black"/>
        <rect x="54.4561" y="182.057" width="157.184" height="11.2453" rx="5.62267" transform="rotate(-16.79 54.4561 182.057)" fill="black"/>
        <rect x="42.4995" y="141.638" width="157.184" height="11.2453" rx="5.62267" transform="rotate(-16.79 42.4995 141.638)" fill="black"/>
        <rect x="60.4916" y="202.05" width="97.5625" height="11.2453" rx="5.62267" transform="rotate(-16.79 60.4916 202.05)" fill="black"/>
        <rect x="38.4997" y="123.415" width="91.8482" height="11.2453" rx="5.62267" transform="rotate(-16.79 38.4997 123.415)" fill="black"/>
        <rect x="31.5004" y="103.271" width="86.6761" height="11.2453" rx="5.62267" transform="rotate(-16.79 31.5004 103.271)" fill="black"/>
        <rect x="25.4995" y="83.2708" width="69.6797" height="11.2453" rx="5.62267" transform="rotate(-16.79 25.4995 83.2708)" fill="black"/>
        <rect x="66.5291" y="222.043" width="97.5625" height="11.2453" rx="5.62267" transform="rotate(-16.79 66.5291 222.043)" fill="#FF5500"/>
        <rect x="72.5568" y="242.037" width="97.5625" height="11.2453" rx="5.62267" transform="rotate(-16.79 72.5568 242.037)" fill="#FF5500"/>
        <rect x="79.4997" y="261.415" width="97.5625" height="11.2453" rx="5.62267" transform="rotate(-16.79 79.4997 261.415)" fill="#FF5500"/>
        <path d="M280.891 286.906C287.437 280.777 282.989 265.044 294.463 263.788C305.319 262.608 306.595 277.022 304.889 284.685C304.611 285.954 303.84 288.784 301.932 287.502C300.908 286.817 301.78 282.757 301.805 281.818C301.894 278.329 302.083 270.398 297.61 269.421C292.669 268.254 291.557 274.598 291.051 277.91C290.378 283.145 288.313 288.102 285.074 292.26C283.662 294.045 281.828 295.448 279.738 296.34C277.649 297.232 275.371 297.586 273.111 297.369C270.85 297.152 268.68 296.372 266.797 295.098C264.913 293.825 263.377 292.099 262.327 290.078C257.272 281.044 263.187 269.066 269.353 262.164C272.386 258.763 276.367 256.416 279.463 253.092C282.955 249.467 285.951 245.392 288.372 240.975C293.427 231.611 296.03 218.567 290.217 208.924C279.16 190.552 249.4 200.449 237.306 212.261C234.867 214.647 231.607 217.869 231.91 221.612C232.428 228.045 239.025 225.508 242.576 223.566C251.712 218.605 260.684 209.876 271.717 210.041C281.346 210.18 288.372 218.263 285.845 227.906C283.621 236.382 275.445 242.611 268.595 247.369C259.869 253.288 250.74 258.584 241.274 263.217C235.549 266.084 223.089 269.218 220.966 276.298C219.45 281.374 223.165 285.028 228.056 283.696C233.338 282.249 237.078 277.517 242.474 276.501C244.256 276.172 253.456 277.275 248.983 280.016C247.972 280.638 245.95 279.8 244.838 279.838C243.451 279.916 242.092 280.256 240.832 280.841C238.14 281.957 235.853 283.835 233.35 285.256C229.307 287.553 223.607 289.849 219.096 287.578C214.862 285.447 213.093 279.445 214.572 275.093C217.731 265.793 231.379 261.009 239.176 256.746C248.945 251.404 258.839 245.783 267.496 238.716C270.883 235.95 274.686 232.702 276.531 228.566C278.376 224.429 277.075 219.367 271.818 219.684C262.176 220.306 254.543 230.862 246.784 235.595C237.028 241.546 225.49 242.776 217.718 232.918C210.831 224.137 214.18 213.594 219.829 205.245C220.157 204.75 222.483 202.174 221.75 201.438C221.017 200.702 217.251 203.76 216.91 203.976C212.713 206.809 209.436 210.814 207.482 215.497C200.987 233.184 229.218 257.736 207.482 271.388C199.584 276.362 187.705 276.552 182.537 267.721C176.749 257.837 183.207 247.496 185.064 237.523C185.873 233.197 183.421 227.094 178.051 229.289C176.787 229.796 174.879 232.347 173.501 231.522C171.366 230.253 174.613 227.715 175.637 226.98C179.239 224.442 183.699 224.315 186.505 228.16C189.753 232.6 188.906 239.439 188.299 244.54C187.263 253.308 183.017 267.62 196.627 267.848C208.14 268.038 208.746 256.606 205.271 248.511C201.265 239.186 194.315 231.129 193.19 220.724C192.065 210.32 197.689 201.997 205.018 195.107C205.827 194.346 209.466 191.745 208.076 190.768C206.686 189.791 203.3 191.77 202.276 192.303C197.373 194.84 193.43 199.497 188.843 202.656C181.084 207.998 168.345 213.911 160.422 205.473C153.434 198.025 156.492 185.667 165.944 182.571C170.367 181.125 175.106 180.642 179.681 179.843C182.701 179.323 191.56 178.206 191.964 173.88C192.368 169.553 186.606 170.733 184.748 169.122C183.156 167.739 183.876 166.457 185.418 165.95C187.769 165.163 190.751 166.749 192.154 167.777C202.731 175.542 188.539 182.19 182.234 184.005C177.937 185.274 156.416 187.875 164.542 197.264C171.593 205.422 183.99 195.145 189.032 189.562C191.711 186.606 194.087 183.447 197.486 181.188C202.857 177.559 211.387 177.293 211.274 176.227C211.097 174.4 206.509 174.692 203.691 172.522C201.244 170.744 199.109 168.57 197.373 166.089C193.139 160.164 192.912 152.906 195.73 146.296C200.279 135.625 209.77 127.707 219.361 121.782C221.724 120.323 232.466 115.679 227.12 111.771C222.71 108.561 213.346 113.662 208.771 114.905C205.953 115.679 202.807 116.669 199.925 115.362C198.839 114.842 193.316 109.969 195.806 108.612C197.069 107.901 200.317 111.314 201.467 111.695C204.652 112.773 208.493 110.705 211.476 109.716C217.706 107.647 226.261 103.892 232.314 108.345C237.66 112.291 234.981 118.001 230.975 121.668C226.387 125.868 220.574 128.57 215.886 132.707C211.384 136.408 207.509 140.817 204.412 145.763C200.873 151.853 202.895 158.641 208.961 162.257C211.416 163.581 214.079 164.474 216.834 164.896C220.84 165.67 222.116 166.279 222.129 162.13C222.129 154.962 222.811 147.577 225.768 140.941C228.725 134.305 234.892 129.268 241.11 125.525C265.575 110.781 306.936 118.153 309.843 151.485C310.02 153.464 309.173 159.923 310.917 160.595C313.154 161.445 320.015 158.057 321.999 157.093C327.219 154.695 334.043 149.595 330.757 143.009C327.572 136.665 317.728 137.084 311.991 134.825C306.254 132.567 302.311 126.083 306.102 120.221C306.871 119.172 307.861 118.305 309.001 117.682C310.141 117.059 311.403 116.696 312.699 116.618C314.822 116.326 321.962 115.933 323.314 118.052C325.487 121.478 319.295 120.133 317.88 120.018C315.352 119.828 310.639 119.321 309.11 121.871C304.636 129.332 319.598 130.664 322.922 131.209C328.988 132.199 337.467 134.09 340.854 139.901C344.645 146.397 342.042 154.746 337.48 160.011C332.425 165.785 326.246 168.386 319.788 171.926C316.477 173.74 318.853 173.524 321.545 174.463C324.98 175.857 328.122 177.889 330.808 180.452C336.216 185.236 339.881 191.96 345.656 196.287C349.953 199.497 359.898 201.007 358.154 192.392C356.701 185.236 347.868 184.994 344.253 179.703C339.616 172.979 346.351 168.538 351.836 166.013C353.643 165.163 359.216 161.103 361.099 162.207C363.373 163.564 357.459 165.772 356.423 166.267C353.63 167.599 350.509 168.944 348.297 171.164C345.012 174.476 347.564 177.343 350.66 179.513C355.5 182.926 363.891 185.134 366.318 191.085C366.93 192.683 367.165 194.401 367.006 196.106C366.846 197.81 366.295 199.455 365.397 200.91C364.498 202.365 363.276 203.591 361.827 204.493C360.378 205.395 358.74 205.947 357.042 206.108C349.991 206.704 342.926 203.278 337.316 199.294C335.471 198.025 323.908 187.393 321.355 189.651C321.355 191.212 325.235 193.965 326.22 195.208C328.177 197.672 329.71 200.447 330.757 203.418C332.931 209.762 331.907 215.852 329.62 222.019C326.574 230.215 312.446 250.275 324.464 256.886C329.139 259.423 333.55 256.315 334.396 251.455C335.509 245.111 331.01 238.462 333.373 232.042C333.979 230.38 336.241 227.411 338.188 227.259C341.637 226.992 338.592 229.657 337.505 231.23C333.07 237.574 338.769 242.472 340.728 248.676C342.396 253.98 342.143 260.096 337.164 263.483C332.463 266.655 324.527 267.061 319.346 265.26C305.445 260.438 312.357 242.002 315.871 232.537C317.892 227.106 320.154 220.636 319.093 214.774C318.544 211.94 317.198 209.325 315.213 207.237C313.836 205.676 309.653 200.728 307.1 201.794C305.925 202.288 309.982 215.192 310.184 217.578C310.668 224.332 309.184 231.081 305.913 237.003C299.594 249.07 289.762 257.609 279.375 266.034C274.471 270.018 269.606 275.651 269.859 282.452C269.96 285.167 270.933 287.527 273.536 288.606C275.508 289.431 279.83 289.291 280.891 286.906Z" fill="#FF5500"/>
        <path d="M161.879 80.1906L161.09 77.3086C160.525 75.2449 160.436 73.2422 160.822 71.3006C161.222 69.3364 162.107 67.6119 163.479 66.1272C164.864 64.6198 166.74 63.5423 169.106 62.8947C171.526 62.2324 173.695 62.1932 175.614 62.7771C177.533 63.3609 179.147 64.4012 180.455 65.898C181.782 67.3899 182.727 69.1677 183.292 71.2314L184.081 74.1134C184.646 76.1771 184.738 78.1886 184.356 80.148C183.969 82.0896 183.093 83.8116 181.725 85.3141C180.371 86.794 178.502 87.8601 176.118 88.5127C173.717 89.17 171.547 89.2093 169.61 88.6303C167.669 88.0335 166.037 86.9981 164.715 85.524C163.389 84.032 162.444 82.2542 161.879 80.1906ZM167.308 75.6066L168.096 78.4887C168.515 80.0186 169.26 81.3064 170.33 82.3521C171.4 83.3978 172.843 83.6723 174.657 83.1756C176.454 82.6838 177.538 81.7178 177.909 80.2777C178.279 78.8376 178.255 77.3526 177.837 75.8226L177.048 72.9406C176.629 71.4106 175.902 70.1179 174.868 69.0625C173.851 68.0023 172.417 67.7253 170.567 68.2318C168.788 68.7187 167.695 69.6871 167.289 71.137C166.883 72.5868 166.889 74.0767 167.308 75.6066ZM125.832 56.4387L125.043 53.5567C124.478 51.493 124.387 49.4815 124.768 47.5221C125.168 45.5578 126.054 43.8334 127.426 42.3487C128.815 40.8591 130.693 39.7905 133.06 39.1428C135.479 38.4806 137.648 38.4414 139.567 39.0252C141.487 39.609 143.1 40.6494 144.409 42.1461C145.717 43.6429 146.654 45.4232 147.219 47.4868L148.008 50.3689C148.573 52.4325 148.664 54.4441 148.283 56.4034C147.914 58.3402 147.046 60.0598 145.679 61.5623C144.325 63.0421 142.456 64.1083 140.072 64.7608C137.652 65.4231 135.474 65.4647 133.537 64.8857C131.613 64.2841 129.99 63.2462 128.669 61.7721C127.343 60.2802 126.397 58.5024 125.832 56.4387ZM131.288 51.8475L132.077 54.7295C132.495 56.2595 133.231 57.5497 134.283 58.6003C135.354 59.6459 136.796 59.9204 138.611 59.4237C140.39 58.9368 141.465 57.9732 141.835 56.5331C142.224 55.0882 142.209 53.6007 141.79 52.0708L141.001 49.1887C140.582 47.6588 139.856 46.3661 138.821 45.3107C137.786 44.2553 136.353 43.9783 134.52 44.4799C132.741 44.9669 131.649 45.9353 131.242 47.3851C130.854 48.8301 130.869 50.3175 131.288 51.8475ZM139.733 97.2673L162.347 32.3312L168.724 30.5854L146.111 95.5216L139.733 97.2673Z" fill="black"/>
    </symbol>
    <symbol id="ads-manager" viewBox="0 0 322 67">
        <path d="M304.372 36.8897V66.1197H294.423V0.616371H310.535C317.138 0.616371 320.483 3.43372 320.483 10.7412V22.3628C320.483 27.8214 317.93 29.9344 316.169 30.7267C318.37 31.6952 320.483 33.4561 320.483 37.8582V60.8371C320.483 63.4784 321.012 64.711 321.452 65.6794V66.1197H311.591C311.151 65.4153 310.623 64.2708 310.623 60.7491V41.0277C310.623 38.1223 310.094 36.8897 306.925 36.8897H304.372ZM304.372 9.50862V27.5572H307.013C309.742 27.5572 310.623 25.7964 310.623 22.891V13.7346C310.623 10.9173 310.006 9.50862 307.013 9.50862H304.372Z" fill="white"/>
        <path d="M266.954 0.616371H289.581V10.1249H276.903V27.2931H286.852V37.2419H276.903V56.1709H290.11V66.1197H266.954V0.616371Z" fill="white"/>
        <path d="M245.392 67.0001H244.775C238.965 67.0001 235.267 61.8056 235.267 55.0264V14.0868C235.267 6.77932 238.084 8.39233e-05 247.505 8.39233e-05H249.442C260.095 8.39233e-05 261.327 6.9554 261.327 14.7031V21.3943H251.643V13.9988C251.643 11.0934 250.938 9.50863 248.473 9.50863C246.36 9.50863 245.392 11.0934 245.392 13.9988V52.2971C245.392 55.3785 246.624 56.9633 248.649 56.9633C251.202 56.9633 252.347 55.2024 252.347 52.7373V36.3614H247.857V26.3247H261.768V66.1197H256.133C256.045 65.7675 255.252 62.5099 254.46 59.6926C253.756 61.8936 250.41 67.0001 245.392 67.0001Z" fill="white"/>
        <path d="M222.811 66.1197L221.49 53.7938H214.271L212.95 66.1197H204.058L212.07 0.616371H223.868L232.408 66.1197H222.811ZM215.239 44.0211H220.434L217.793 19.8095L215.239 44.0211Z" fill="white"/>
        <path d="M174.146 0.616371H183.126L191.666 35.7451V0.616371H200.734V66.1197H192.635L183.126 28.4377V66.1197H174.146V0.616371Z" fill="white"/>
        <path d="M161.168 66.1197L159.847 53.7938H152.628L151.307 66.1197H142.415L150.427 0.616371H162.224L170.764 66.1197H161.168ZM153.596 44.0211H158.791L156.149 19.8095L153.596 44.0211Z" fill="white"/>
        <path d="M104.851 66.1197V0.616371H117.617L122.371 35.2169L127.213 0.616371H139.099V66.1197H129.766V23.7714L123.78 66.1197H119.818L113.743 23.7714V66.1197H104.851Z" fill="white"/>
        <path d="M89.5608 51.5047C89.5608 61.1013 85.4228 66.824 76.7066 66.824H74.7697C66.8459 66.824 62.6199 62.5099 62.6199 54.4101V41.2918H72.4806V52.7373C72.4806 55.7307 73.4491 57.3155 75.7382 57.3155C78.1153 57.3155 78.9957 55.7307 78.9957 51.6808V50.1841C78.9957 45.5178 78.5555 43.845 74.9458 39.1788L68.6068 31.0789C64.3808 25.6203 63.1482 21.3943 63.1482 14.8792V12.7662C63.1482 4.05002 67.5503 8.39233e-05 75.386 8.39233e-05H77.2349C85.4228 8.39233e-05 88.5923 3.60981 88.5923 11.3575V22.0986H78.9957V12.6781C78.9957 10.4771 78.5555 8.80429 76.1784 8.80429C73.8013 8.80429 73.273 10.301 73.273 13.3825V14.6151C73.273 18.3128 73.9773 20.3378 77.3229 24.6519L83.662 32.8398C88.1521 38.6505 89.5608 41.9961 89.5608 49.3917V51.5047Z" fill="white"/>
        <path d="M31.7309 66.1197V0.616371H46.9622C55.5023 0.616371 58.1435 5.45868 58.1435 13.2064V53.0894C58.1435 61.1013 55.1501 66.1197 46.9622 66.1197H31.7309ZM41.6797 9.50862V56.6111H44.0568C47.0502 56.6111 47.9307 55.0264 47.9307 51.5047V14.6151C47.9307 10.8292 46.9622 9.50862 44.497 9.50862H41.6797Z" fill="white"/>
        <path d="M18.753 66.1197L17.4323 53.7938H10.2129L8.89225 66.1197H0L8.01183 0.616371H19.8095L28.3495 66.1197H18.753ZM11.1813 44.0211H16.3758L13.7346 19.8095L11.1813 44.0211Z" fill="white"/>
    </symbol>
    <symbol id="arrow-1" viewBox="0 0 161 135">
        <path d="M158.256 131.992C159.868 131.822 161.038 130.378 160.868 128.766L158.103 102.496C157.933 100.884 156.489 99.7144 154.877 99.8841C153.264 100.054 152.095 101.498 152.265 103.11L154.723 126.461L131.372 128.919C129.76 129.089 128.591 130.533 128.76 132.145C128.93 133.757 130.374 134.927 131.986 134.757L158.256 131.992ZM2.50006 3.23315L0.653364 5.51437L156.102 131.354L157.949 129.073L159.796 126.792L4.34676 0.951941L2.50006 3.23315Z" fill="white"/>
    </symbol>
    <symbol id="arrow-2" viewBox="0 0 182 109">
        <path d="M0.690133 96.9323C0.221958 98.4842 1.10046 100.122 2.65232 100.59L27.9415 108.219C29.4934 108.688 31.131 107.809 31.5991 106.257C32.0673 104.705 31.1888 103.068 29.637 102.6L7.15767 95.8179L13.9395 73.3386C14.4076 71.7867 13.5291 70.1491 11.9773 69.681C10.4254 69.2128 8.78782 70.0913 8.31963 71.6432L0.690133 96.9323ZM179.741 3.23315L178.354 0.646818L2.11257 95.1937L3.50005 97.7801L4.88752 100.366L181.129 5.81949L179.741 3.23315Z" fill="white"/>
    </symbol>
    <symbol id="arrow-3" viewBox="0 0 187 100">
        <path d="M184.574 89.7063C186.094 89.1436 186.87 87.4551 186.308 85.9349L177.137 61.1627C176.575 59.6426 174.886 58.8665 173.366 59.4292C171.846 59.9919 171.07 61.6804 171.633 63.2005L179.784 85.2203L157.764 93.3715C156.244 93.9342 155.468 95.6227 156.03 97.1428C156.593 98.663 158.282 99.4391 159.802 98.8764L184.574 89.7063ZM1.83386 3.4231L0.608049 6.08986L182.329 89.6206L183.555 86.9538L184.781 84.2871L3.05968 0.756336L1.83386 3.4231Z" fill="white"/>
    </symbol>
</svg>