<!-- icon.sprite.svg -->
<svg xmlns="http://www.w3.org/2000/svg">
    <symbol id="logo" viewBox="0 0 952 281">
        <path d="M1.17997 0.266479L66.8583 0.539375C74.1401 0.354478 81.3934 1.51456 88.2542 3.96135C93.4015 5.85123 98.0079 8.97214 101.671 13.0516C105.094 17.0996 107.479 21.92 108.621 27.0963C110.029 33.102 110.706 39.2558 110.637 45.4238L110.448 87.4111C110.448 98.9716 108.348 107.698 104.149 113.59C100.656 118.895 95.6113 122.993 89.703 125.326C92.6326 126.406 95.4463 127.777 98.1017 129.419C101.103 131.326 103.724 133.775 105.829 136.641C108.362 140.175 110.272 144.115 111.477 148.293C113.057 153.939 113.765 159.794 113.576 165.654L113.324 225.045C113.324 239.559 109.825 251.532 102.826 260.966C95.8271 270.399 84.4327 275.094 68.6431 275.052L0.00415039 274.758L1.17997 0.266479ZM42.229 149.867L41.851 236.193H54.4491C61.1121 236.193 65.4865 234.675 67.5722 231.637C69.6579 228.6 70.7287 223.989 70.7847 217.803L70.9947 167.628C71.2896 163.052 70.2151 158.491 67.9082 154.528C65.8085 151.442 61.4831 149.888 54.8271 149.846L42.229 149.867ZM42.7119 37.6982L42.3969 108.909H54.9951C60.5942 108.909 64.4157 107.138 66.4594 103.597C68.6034 99.3173 69.636 94.5669 69.462 89.7834L69.6089 55.1018C69.9275 50.6007 68.9201 46.1049 66.7113 42.1698C64.7516 39.2027 60.9512 37.7122 55.31 37.6982H42.7119Z" fill="#FF5500"/>
        <path d="M127.758 0.815674L170.192 1.00461L169.227 218.31C168.983 223.237 170.048 228.14 172.313 232.523C173.33 234.275 174.816 235.709 176.604 236.662C178.393 237.616 180.412 238.051 182.434 237.918C187.347 237.918 190.832 236.238 192.932 232.796C195.269 228.376 196.372 223.408 196.124 218.415L197.069 1.10958L239.524 1.29852L238.726 216.022C238.642 235.462 234.443 250.815 226.128 262.082C217.813 273.348 204.438 278.947 186.003 278.877H178.633C160.17 278.793 146.872 273.194 138.739 262.082C130.606 250.969 126.631 235.434 126.813 215.476L127.758 0.815674Z" fill="#FF5500"/>
        <path d="M353.94 1.8L353.793 38.6859L292.776 236.173L355.872 236.446L355.704 276.334L249.061 275.872L249.229 238.986L309.49 41.499L253.764 41.2261L253.953 1.33813L353.94 1.8Z" fill="#FF5500"/>
        <path d="M466.491 2.29048L466.323 39.1343L405.327 236.685L468.423 236.958L468.255 276.845L361.612 276.363L361.78 239.456L422.041 41.9685L366.315 41.7166L366.504 1.82861L466.491 2.29048Z" fill="#FF5500"/>
        <path d="M592.867 216.081C592.909 224.88 592.001 233.657 590.158 242.26C588.64 249.627 585.593 256.593 581.214 262.708C576.991 268.488 571.311 273.044 564.752 275.913C556.765 279.175 548.179 280.713 539.556 280.427H532.543C523.904 280.658 515.315 279.047 507.346 275.703C500.769 272.759 495.067 268.158 490.801 262.351C486.368 256.221 483.257 249.236 481.667 241.84C479.778 233.238 478.884 224.447 479.001 215.64L479.673 62.8905C479.535 54.1407 480.416 45.4047 482.297 36.8584C483.941 29.6327 487.121 22.8451 491.62 16.9564C496.014 11.4165 501.743 7.08241 508.27 4.36018C516.199 1.21926 524.691 -0.252965 533.215 0.0354956H540.207C548.91 -0.175743 557.566 1.37381 565.655 4.59111C572.2 7.32101 577.908 11.7316 582.201 17.3762C586.525 23.3242 589.519 30.1335 590.977 37.3412C592.761 45.7677 593.634 54.3614 593.581 62.9744L592.867 216.081ZM551.104 61.022C551.104 46.9563 546.338 39.9024 536.805 39.8605C531.388 39.8605 527.567 41.5679 525.341 44.9829C523.115 48.4469 521.981 53.7372 521.96 60.8961L521.267 219.398C521.06 224.558 522.097 229.692 524.291 234.367C526.377 238.453 530.366 240.511 536.259 240.539C541.858 240.539 545.617 238.516 547.535 234.472C549.537 229.742 550.504 224.638 550.369 219.503L551.104 61.022Z" fill="#FF5500"/>
        <path d="M721.658 216.651C721.686 225.428 720.778 234.182 718.95 242.767C717.409 250.126 714.363 257.088 710.005 263.215C705.768 268.99 700.083 273.545 693.522 276.42C685.504 279.7 676.879 281.232 668.221 280.912H661.208C652.57 281.138 643.982 279.528 636.012 276.189C629.446 273.225 623.75 268.628 619.466 262.837C615.033 256.707 611.923 249.722 610.333 242.326C608.453 233.715 607.565 224.918 607.687 216.105L608.338 63.3762C608.284 54.6224 609.257 45.8925 611.236 37.3651C612.867 30.1455 616.04 23.3637 620.537 17.4841C624.944 11.9479 630.679 7.61507 637.209 4.88792C645.134 1.7628 653.617 0.297982 662.132 0.584213H669.166C677.861 0.368562 686.509 1.91095 694.593 5.11885C701.146 7.85577 706.861 12.2732 711.16 17.925C715.49 23.8674 718.478 30.6795 719.916 37.8899C721.67 46.3262 722.501 54.9282 722.393 63.5442L721.658 216.651ZM679.874 61.5918C679.874 47.526 675.108 40.4651 665.576 40.4091C660.158 40.4091 656.358 42.1097 654.111 45.5526C651.865 48.9956 650.752 54.307 650.731 61.4658L650.038 219.947C649.849 225.123 650.9 230.27 653.103 234.957C655.189 239.058 659.179 241.115 665.072 241.129C670.741 241.129 674.499 239.107 676.347 235.062C678.351 230.325 679.318 225.214 679.182 220.073L679.874 61.5918Z" fill="#FF5500"/>
        <path d="M780.127 3.6433L779.12 235.707L830.037 235.938L829.848 278.45L737.231 278.051L738.449 3.43335L780.127 3.6433Z" fill="#FF5500"/>
        <path d="M906.432 227.036L875.798 226.91L870.444 278.45H833.174L867.966 4.08386L917.393 4.31479L951.996 278.891L911.787 278.723L906.432 227.036ZM880.438 186.078H902.233L891.609 84.5735L880.438 186.078Z" fill="#FF5500"/>
    </symbol>
</svg>