<svg width="667" height="70" viewBox="0 0 667 70" fill="none" xmlns="http://www.w3.org/2000/svg">
<path d="M658.216 70L657.009 58.7356H650.411L649.204 70H641.078L648.399 10.1379H659.181L666.986 70H658.216ZM651.296 49.8046H656.043L653.629 27.6781L651.296 49.8046Z" fill="white"/>
<path d="M631.758 45.1379H626.448V70H617.356V10.1379H631.758C638.195 10.1379 641.092 12.8735 641.092 20.0344V34.1954C641.092 41.2758 637.954 45.1379 631.758 45.1379ZM626.448 18.2643V36.5287H628.781C631.517 36.5287 631.919 34.5977 631.919 32.1839V22.3678C631.919 20.0344 631.437 18.2643 628.781 18.2643H626.448Z" fill="white"/>
<path d="M592.252 10.1379H612.93V18.8275H601.344V34.5172H610.436V43.6091H601.344V60.908H613.413V70H592.252V10.1379Z" fill="white"/>
<path d="M549.706 70V10.1379H558.798V60.908H563.947V10.1379H573.039V60.908H578.189V10.1379H587.281V70H549.706Z" fill="white"/>
<path d="M535.655 70V37.5747L529.138 70H520.046V10.1379H529.138V42.5632L535.655 10.1379H544.747V70H535.655Z" fill="white"/>
<path d="M505.938 70V18.8275H500.628C500.628 38.1379 500.548 51.8965 499.824 60.5862C499.341 66.6206 497.249 70 490.329 70H488.076V60.7471H488.72C490.893 60.7471 491.295 59.5402 491.536 56.7241C492.099 50.6091 492.099 41.5977 492.099 10.1379H515.03V70H505.938Z" fill="white"/>
<path d="M461.198 70V10.1379H483.164V18.8275H470.29V33.3103H475.601C481.796 33.3103 484.934 37.2528 484.934 44.3333V59.5402C484.934 66.7011 482.037 70 475.601 70H461.198ZM470.29 61.3103H472.624C475.279 61.3103 475.761 59.5402 475.761 57.2068V46.3448C475.761 43.931 475.359 42 472.624 42H470.29V61.3103Z" fill="white"/>
<path d="M449.336 70L448.13 58.7356H441.532L440.325 70H432.198L439.52 10.1379H450.302L458.107 70H449.336ZM442.417 49.8046H447.164L444.75 27.6781L442.417 49.8046Z" fill="white"/>
<path d="M405.413 70V10.1379H429.148V70H420.056V18.8275H414.505V70H405.413Z" fill="white"/>
<path d="M391.737 18.8275H384.093V70H375.082V18.8275H367.438V10.1379H391.737V18.8275Z" fill="white"/>
<path d="M343.463 10.1379H364.141V18.8275H352.555V34.5172H361.647V43.6091H352.555V60.908H364.624V70H343.463V10.1379Z" fill="white"/>
<path d="M329.403 70V43.6896H323.208V70H314.116V10.1379H323.208V34.1149H329.403V10.1379H338.495V70H329.403Z" fill="white"/>
<path d="M300.065 70V37.5747L293.548 70H284.456V10.1379H293.548V42.5632L300.065 10.1379H309.157V70H300.065Z" fill="white"/>
<path d="M256.289 70V10.1379H278.255V18.8275H265.381V33.3103H270.691C276.887 33.3103 280.025 37.2528 280.025 44.3333V59.5402C280.025 66.7011 277.128 70 270.691 70H256.289ZM265.381 61.3103H267.714C270.37 61.3103 270.852 59.5402 270.852 57.2068V46.3448C270.852 43.931 270.45 42 267.714 42H265.381V61.3103Z" fill="white"/>
<path d="M244.429 70L243.222 58.7356H236.625L235.418 70H227.291L234.613 10.1379H245.395L253.199 70H244.429ZM237.51 49.8046H242.257L239.843 27.6781L237.51 49.8046Z" fill="white"/>
<path d="M216.218 70L208.655 44.0114V70H199.563V10.1379H208.655V34.1149L215.815 10.1379H224.666L216.218 37.977L225.551 70H216.218Z" fill="white"/>
<path d="M175.73 70V37.5747L169.212 70H160.12V10.1379H169.212V42.5632L175.73 10.1379H184.822V70H175.73ZM180.316 0.482762C180.316 5.39081 176.534 8.04598 172.35 8.04598H172.109C167.684 8.04598 164.143 5.39081 164.143 0.482762V0H170.339V0.32184C170.339 1.68966 171.063 2.49425 172.189 2.49425H172.27C173.396 2.49425 174.201 1.68966 174.201 0.32184V0H180.316V0.482762Z" fill="white"/>
<path d="M134.255 33.3103C140.451 33.3103 143.589 37.2528 143.589 44.3333V59.5402C143.589 66.7011 140.692 70 134.255 70H119.853V10.1379H128.945V33.3103H134.255ZM128.945 61.3103H131.278C133.934 61.3103 134.416 59.5402 134.416 57.2068V46.3448C134.416 43.931 134.014 42 131.278 42H128.945V61.3103ZM155.095 10.1379V70H146.003V10.1379H155.095Z" fill="white"/>
<path d="M105.795 70V43.6896H99.5998V70H90.5078V10.1379H99.5998V34.1149H105.795V10.1379H114.887V70H105.795Z" fill="white"/>
<path d="M76.4379 70V45.2988C74.5068 45.9425 72.5758 46.1034 70.8861 46.1034H70.8057C63.9666 46.1034 61.1505 42.0804 61.1505 36.5287V10.1379H70.2425V32.5862C70.2425 36.2069 71.208 36.931 73.3804 36.931H73.5413C74.9091 36.931 75.8746 36.7701 76.4379 36.4482V10.1379H85.5298V70H76.4379Z" fill="white"/>
<path d="M47.5812 70V37.5747L41.064 70H31.972V10.1379H41.064V42.5632L47.5812 10.1379H56.6732V70H47.5812Z" fill="white"/>
<path d="M17.8663 70V18.8275H12.556C12.556 38.1379 12.4755 51.8965 11.7514 60.5862C11.2686 66.6206 9.17669 70 2.25715 70H0.00427246V60.7471H0.647951C2.82036 60.7471 3.22266 59.5402 3.46404 56.7241C4.02726 50.6091 4.02726 41.5977 4.02726 10.1379H26.9583V70H17.8663Z" fill="white"/>
</svg>
