<svg width="340" height="292" viewBox="0 0 340 292" fill="none" xmlns="http://www.w3.org/2000/svg">
<path d="M207.604 275.407C217.625 266.072 210.816 242.106 228.38 240.192C244.997 238.395 246.951 260.351 244.339 272.025C243.914 273.958 242.734 278.268 239.813 276.316C238.246 275.272 239.581 269.087 239.619 267.657C239.755 262.342 240.045 250.262 233.197 248.774C225.633 246.996 223.931 256.659 223.157 261.704C222.126 269.679 218.966 277.23 214.007 283.564C211.846 286.283 209.038 288.419 205.84 289.779C202.642 291.138 199.154 291.677 195.694 291.346C192.234 291.016 188.912 289.827 186.029 287.887C183.146 285.947 180.795 283.318 179.188 280.239C171.45 266.478 180.503 248.233 189.943 237.718C194.586 232.539 200.679 228.963 205.419 223.899C210.763 218.377 215.349 212.17 219.056 205.441C226.794 191.177 230.779 171.308 221.881 156.619C204.954 128.633 159.398 143.708 140.886 161.703C137.152 165.336 132.161 170.245 132.626 175.947C133.419 185.746 143.517 181.881 148.952 178.924C162.938 171.366 176.673 158.069 193.56 158.32C208.301 158.533 219.056 170.845 215.187 185.534C211.783 198.445 199.267 207.934 188.782 215.182C175.425 224.198 161.449 232.265 146.96 239.323C138.197 243.691 119.123 248.465 115.873 259.249C113.552 266.98 119.239 272.547 126.726 270.518C134.812 268.314 140.537 261.105 148.798 259.559C151.525 259.056 165.608 260.738 158.76 264.912C157.212 265.859 154.117 264.584 152.415 264.642C150.293 264.76 148.212 265.278 146.283 266.169C142.162 267.87 138.661 270.73 134.831 272.895C128.641 276.393 119.916 279.891 113.01 276.432C106.53 273.185 103.822 264.043 106.085 257.413C110.921 243.246 131.813 235.96 143.749 229.465C158.702 221.328 173.849 212.766 187.099 202.001C192.284 197.787 198.106 192.839 200.931 186.539C203.755 180.238 201.762 172.526 193.715 173.009C178.955 173.956 167.271 190.037 155.394 197.246C140.46 206.311 122.799 208.186 110.902 193.168C100.359 179.793 105.485 163.732 114.132 151.014C114.635 150.261 118.195 146.337 117.073 145.216C115.951 144.095 110.186 148.753 109.664 149.082C103.24 153.396 98.2231 159.498 95.2329 166.631C85.2899 193.574 128.505 230.973 95.2329 251.77C83.1427 259.346 64.959 259.636 57.0471 246.184C48.1874 231.128 58.0724 215.376 60.916 200.184C62.154 193.593 58.4012 184.297 50.1799 187.64C48.2454 188.413 45.3244 192.298 43.2159 191.042C39.9467 189.109 44.9182 185.244 46.4851 184.123C51.9982 180.257 58.8268 180.064 63.1213 185.92C68.0928 192.685 66.7967 203.102 65.8682 210.872C64.2819 224.228 57.7822 246.029 78.6161 246.377C96.2389 246.667 97.1674 229.253 91.8477 216.922C85.7155 202.716 75.0761 190.443 73.3544 174.594C71.6328 158.745 80.241 146.066 91.4608 135.572C92.6988 134.412 98.27 130.45 96.1421 128.961C94.0142 127.473 88.8299 130.488 87.263 131.3C79.7574 135.166 73.722 142.259 66.7 147.071C54.8225 155.208 35.3234 164.215 23.1944 151.362C12.497 140.017 17.1783 121.192 31.6479 116.476C38.4185 114.272 45.6726 113.538 52.6753 112.32C57.2986 111.528 70.859 109.827 71.478 103.236C72.097 96.6455 63.276 98.443 60.4324 95.9884C57.995 93.8816 59.0976 91.9295 61.4576 91.1564C65.0557 89.9581 69.621 92.3741 71.7682 93.9396C87.9594 105.768 66.2357 115.896 56.5828 118.66C50.0058 120.593 17.0623 124.555 29.5007 138.857C40.2949 151.285 59.2717 135.63 66.9901 127.125C71.0911 122.622 74.7279 117.809 79.9315 114.369C88.1529 108.841 101.21 108.435 101.036 106.812C100.765 104.029 93.7434 104.473 89.4296 101.168C85.684 98.4603 82.4153 95.1487 79.7574 91.3691C73.2771 82.343 72.9289 71.2876 77.2426 61.2179C84.2066 44.9633 98.7343 32.9028 113.417 23.8767C117.034 21.654 133.477 14.5801 125.294 8.62717C118.543 3.73727 104.209 11.507 97.2061 13.4011C92.8923 14.5801 88.0755 16.0877 83.665 14.0969C82.0014 13.3045 73.5479 5.88263 77.3587 3.81457C79.2932 2.73222 84.2647 7.93138 86.025 8.51121C90.8998 10.1541 96.7805 7.00366 101.346 5.4961C110.883 2.34568 123.979 -3.37532 133.245 3.4087C141.427 9.41962 137.326 18.1171 131.194 23.7028C124.172 30.1003 115.274 34.217 108.097 40.5179C101.206 46.1565 95.2743 52.8728 90.5322 60.4061C85.1158 69.6834 88.2109 80.0237 97.4962 85.5321C101.254 87.5492 105.33 88.9089 109.548 89.5523C115.68 90.7312 117.634 91.6589 117.653 85.3388C117.653 74.4186 118.698 63.1699 123.224 53.0616C127.751 42.9532 137.191 35.2801 146.708 29.5784C184.159 7.11961 247.473 18.349 251.922 69.1229C252.193 72.138 250.897 81.9758 253.567 83.0001C256.991 84.2951 267.495 79.1346 270.532 77.6657C278.521 74.0127 288.967 66.2431 283.937 56.212C279.063 46.5481 263.993 47.1859 255.211 43.7456C246.429 40.3053 240.393 30.4288 246.197 21.4994C247.374 19.9004 248.888 18.5798 250.634 17.6311C252.379 16.6825 254.311 16.1292 256.294 16.0104C259.544 15.5658 270.474 14.9667 272.544 18.1944C275.871 23.4129 266.392 21.3641 264.225 21.1902C260.357 20.9003 253.141 20.1272 250.8 24.012C243.953 35.3767 266.856 37.4061 271.944 38.2372C281.229 39.7448 294.209 42.6246 299.394 51.4767C305.197 61.3725 301.212 74.0901 294.229 82.1111C286.491 90.9052 277.031 94.8673 267.147 100.26C262.078 103.024 265.715 102.695 269.835 104.125C275.094 106.249 279.904 109.344 284.015 113.248C292.294 120.535 297.904 130.778 306.744 137.369C313.322 142.259 328.546 144.559 325.876 131.435C323.651 120.535 310.13 120.167 304.597 112.108C297.498 101.864 307.808 95.0993 316.204 91.2531C318.97 89.9582 327.501 83.7733 330.383 85.4548C333.865 87.5229 324.812 90.8858 323.226 91.6396C318.951 93.669 314.173 95.7178 310.787 99.1002C305.758 104.145 309.665 108.513 314.405 111.818C321.814 117.017 334.658 120.38 338.373 129.445C339.31 131.879 339.67 134.496 339.426 137.093C339.181 139.689 338.338 142.194 336.963 144.411C335.587 146.627 333.717 148.496 331.498 149.869C329.28 151.243 326.773 152.085 324.174 152.329C313.38 153.237 302.566 148.019 293.977 141.95C291.153 140.017 273.453 123.82 269.545 127.261C269.545 129.638 275.484 133.832 276.993 135.726C279.988 139.479 282.335 143.706 283.937 148.231C287.265 157.895 285.698 167.172 282.196 176.566C277.534 189.051 255.907 219.608 274.304 229.678C281.461 233.544 288.213 228.808 289.509 221.406C291.211 211.742 284.324 201.614 287.942 191.834C288.87 189.302 292.333 184.78 295.312 184.548C300.593 184.142 295.931 188.201 294.267 190.597C287.477 200.261 296.202 207.722 299.2 217.173C301.754 225.252 301.367 234.568 293.745 239.728C286.549 244.56 274.401 245.179 266.469 242.434C245.191 235.09 255.772 207.007 261.15 192.588C264.245 184.316 267.708 174.459 266.083 165.529C265.243 161.214 263.182 157.229 260.144 154.049C258.035 151.671 251.632 144.134 247.725 145.757C245.926 146.511 252.135 166.167 252.445 169.801C253.185 180.089 250.913 190.371 245.906 199.392C236.234 217.772 221.184 230.78 205.283 243.613C197.778 249.682 190.33 258.264 190.717 268.623C190.872 272.759 192.361 276.354 196.346 277.997C199.364 279.254 205.98 279.041 207.604 275.407Z" fill="#FF5500"/>
<rect x="3.97207" y="139.633" width="97.6562" height="40.6044" rx="14.7303" transform="rotate(4.56746 3.97207 139.633)" fill="white"/>
<rect x="3.97207" y="139.633" width="97.6562" height="40.6044" rx="14.7303" transform="rotate(4.56746 3.97207 139.633)" stroke="white" stroke-width="0.443238"/>
<path d="M78.9732 169.519L88.4847 166.421L79.6297 161.301L79.7697 159.549L90.6178 166.083L90.5257 167.235L78.8314 171.294L78.9732 169.519Z" fill="black"/>
<path d="M78.7513 156.854L70.9709 173.53L69.0194 173.374L76.7997 156.698L78.7513 156.854Z" fill="black"/>
<path d="M67.9928 170.428L57.0911 164.564L57.1832 163.412L68.9311 158.683L68.7911 160.435L59.2491 164.062L68.1346 168.653L67.9928 170.428Z" fill="black"/>
<path d="M50.9489 170.676C50.9909 170.151 51.1401 169.764 51.3965 169.517C51.6614 169.262 52.0172 169.152 52.4639 169.188C52.9185 169.224 53.2602 169.39 53.4891 169.684C53.7265 169.971 53.8242 170.377 53.7822 170.902C53.7416 171.412 53.5809 171.793 53.3004 172.047C53.0198 172.301 52.6562 172.41 52.2094 172.374C51.8097 172.342 51.4863 172.194 51.2392 171.93C51.0006 171.658 50.9038 171.24 50.9489 170.676Z" fill="black"/>
<path d="M44.7711 170.183C44.813 169.658 44.9622 169.271 45.2186 169.024C45.4835 168.769 45.8393 168.659 46.2861 168.695C46.7407 168.731 47.0824 168.897 47.3113 169.191C47.5486 169.478 47.6463 169.884 47.6044 170.409C47.5637 170.919 47.4031 171.3 47.1225 171.554C46.8419 171.808 46.4783 171.917 46.0316 171.881C45.6318 171.849 45.3084 171.701 45.0614 171.437C44.8228 171.165 44.726 170.747 44.7711 170.183Z" fill="black"/>
<path d="M38.5933 169.689C38.6353 169.164 38.7845 168.778 39.0409 168.53C39.3058 168.275 39.6616 168.165 40.1083 168.201C40.5629 168.237 40.9047 168.403 41.1335 168.697C41.3709 168.984 41.4686 169.39 41.4267 169.915C41.386 170.425 41.2253 170.806 40.9448 171.06C40.6642 171.314 40.3006 171.423 39.8538 171.387C39.4541 171.355 39.1307 171.207 38.8836 170.943C38.645 170.671 38.5483 170.253 38.5933 169.689Z" fill="black"/>
<path d="M24.7613 165.188L34.2728 162.091L25.4178 156.97L25.5577 155.219L36.4059 161.753L36.3138 162.905L24.6195 166.963L24.7613 165.188Z" fill="black"/>
<path d="M22.3818 166.785L11.4802 160.921L11.5722 159.769L23.3201 155.04L23.1802 156.792L13.6381 160.419L22.5237 165.009L22.3818 166.785Z" fill="black"/>
<rect x="194.925" y="231.315" width="100.272" height="39.4881" rx="12.2629" transform="rotate(-14.3392 194.925 231.315)" fill="white"/>
<rect x="194.925" y="231.315" width="100.272" height="39.4881" rx="12.2629" transform="rotate(-14.3392 194.925 231.315)" stroke="white" stroke-width="0.443238"/>
<path d="M273.681 234.877L280.844 229.429L271.84 227.677L271.452 226.159L282.567 228.519L282.816 229.493L274.066 236.385L273.681 234.877Z" fill="black"/>
<path d="M269.787 224.159L268.04 240.58L266.358 241.01L268.115 224.586L269.787 224.159Z" fill="black"/>
<path d="M264.62 238.799L253.637 236.952L253.388 235.978L262.006 228.574L262.394 230.091L255.341 235.926L264.235 237.291L264.62 238.799Z" fill="black"/>
<path d="M250.293 243.98C250.171 243.502 250.201 243.134 250.383 242.876C250.563 242.611 250.82 242.436 251.155 242.351C251.504 242.261 251.824 242.289 252.116 242.433C252.406 242.57 252.612 242.878 252.734 243.356C252.855 243.828 252.824 244.204 252.64 244.484C252.455 244.757 252.188 244.938 251.84 245.028C251.505 245.113 251.194 245.08 250.907 244.927C250.619 244.768 250.414 244.452 250.293 243.98Z" fill="black"/>
<path d="M244.982 245.337C244.86 244.858 244.889 244.49 245.071 244.233C245.251 243.968 245.509 243.793 245.844 243.707C246.193 243.618 246.513 243.646 246.804 243.79C247.094 243.927 247.301 244.234 247.423 244.713C247.544 245.185 247.512 245.561 247.329 245.841C247.144 246.114 246.877 246.295 246.528 246.384C246.193 246.47 245.882 246.436 245.596 246.284C245.307 246.124 245.103 245.809 244.982 245.337Z" fill="black"/>
<path d="M239.677 246.694C239.555 246.215 239.585 245.847 239.766 245.589C239.946 245.325 240.204 245.15 240.539 245.064C240.888 244.975 241.208 245.002 241.5 245.146C241.79 245.283 241.996 245.591 242.118 246.07C242.239 246.542 242.207 246.917 242.024 247.197C241.839 247.471 241.572 247.652 241.223 247.741C240.888 247.827 240.577 247.793 240.291 247.641C240.002 247.481 239.798 247.166 239.677 246.694Z" fill="black"/>
<path d="M226.63 246.903L233.793 241.455L224.79 239.703L224.402 238.185L235.516 240.545L235.765 241.52L227.016 248.411L226.63 246.903Z" fill="black"/>
<path d="M225.072 248.907L214.089 247.06L213.84 246.086L222.458 238.682L222.846 240.2L215.793 246.035L224.687 247.4L225.072 248.907Z" fill="black"/>
<g clip-path="url(#clip0_2563_395)">
<path d="M232.467 69.4731L224.249 68.4151L225.307 60.194L200.644 57.0192L199.586 65.2403L191.367 64.1823L190.309 72.4034L182.088 71.3451L178.913 96.0057L187.134 97.064L186.076 105.285L194.295 106.343L193.237 114.561L217.9 117.736L218.958 109.518L227.176 110.576L228.234 102.355L236.456 103.413L239.63 78.7524L231.409 77.6942L232.467 69.4731ZM213.912 83.7963L205.691 82.738L204.632 90.9591L196.411 89.9008L197.469 81.6797L205.691 82.738L206.748 74.5196L214.97 75.5779L213.912 83.7963Z" fill="black"/>
<path d="M213.911 83.802L205.69 82.7437L204.632 90.9648L196.411 89.9065L197.469 81.6854L205.69 82.7437L206.748 74.5253L214.969 75.5836L213.911 83.802Z" fill="white"/>
<path d="M148.017 75.3163L139.796 74.258L138.738 82.4791L130.517 81.4208L131.575 73.1997L139.796 74.258L140.854 66.0396L149.075 67.0979L148.017 75.3163Z" fill="white"/>
<path d="M166.71 61.0091L158.492 59.9511L159.55 51.73L134.887 48.5552L133.828 56.7763L125.61 55.7183L124.552 63.9394L116.331 62.8811L113.156 87.5417L121.377 88.6L120.319 96.8211L128.537 97.879L127.479 106.097L152.143 109.272L153.201 101.054L161.419 102.112L162.477 93.8907L170.698 94.949L173.873 70.2884L165.652 69.2302L166.71 61.0091ZM148.154 75.3323L139.933 74.274L138.875 82.4951L130.654 81.4368L131.712 73.2157L139.933 74.274L140.991 66.0557L149.212 67.1139L148.154 75.3323Z" fill="black"/>
</g>
<path d="M236.052 83.612L255.872 73.3604L255.872 81.5617" stroke="black" stroke-width="1.91578"/>
<defs>
<clipPath id="clip0_2563_395">
<rect width="140.901" height="47.0429" fill="white" transform="translate(108.111 61.8232) rotate(7.33525)"/>
</clipPath>
</defs>
</svg>
